<svg width="201" height="66" viewBox="0 0 201 66" fill="none" xmlns="http://www.w3.org/2000/svg">
<path d="M196.145 2L150.285 47.4961H17.4521C16.3966 47.4962 15.384 47.9136 14.6348 48.6572L2 61.1973V2H196.145Z" fill="#2366F9"/>
<path d="M196.145 2L150.285 47.4961H17.4521C16.3966 47.4962 15.384 47.9136 14.6348 48.6572L2 61.1973V2H196.145Z" stroke="white" stroke-width="4"/>
<path d="M196.145 2L150.285 47.4961H17.4521C16.3966 47.4962 15.384 47.9136 14.6348 48.6572L2 61.1973V2H196.145Z" stroke="#D8E4FF" stroke-width="4"/>
<path d="M34.2 12.45H48.9V15.15H34.2V12.45ZM42.45 21.57H45.33V35.1C45.33 36.72 45 37.56 43.86 38.01C42.72 38.43 40.92 38.46 38.1 38.46C37.98 37.65 37.59 36.45 37.2 35.61C39.15 35.7 41.16 35.7 41.7 35.67C42.27 35.64 42.45 35.52 42.45 35.04V21.57ZM32.88 20.76H49.71V23.46H32.88V20.76ZM26.58 23.61L29.07 21.12L29.4 21.27V38.61H26.58V23.61ZM30 17.16L32.7 18.18C30.36 22.05 26.76 26.07 23.55 28.65C23.16 28.08 22.17 26.82 21.6 26.25C24.69 24.06 27.99 20.58 30 17.16ZM28.83 10.68L31.56 11.79C29.46 14.52 26.31 17.52 23.55 19.47C23.16 18.84 22.41 17.73 21.93 17.16C24.42 15.51 27.33 12.81 28.83 10.68ZM52.68 34.23H79.38V37.05H52.68V34.23ZM60.81 11.07H63.72V35.34H60.81V11.07ZM68.31 11.07H71.19V35.52H68.31V11.07ZM76.32 17.43L78.93 18.63C77.52 22.26 75.54 26.46 73.89 29.31L71.55 28.08C73.17 25.32 75.21 20.88 76.32 17.43ZM53.22 18.12L55.83 17.34C57.33 20.76 59.13 25.32 59.94 28.05L57.09 29.1C56.4 26.34 54.69 21.63 53.22 18.12ZM88.02 24.75H104.01V27H88.02V24.75ZM88.02 29.58H104.01V31.8H88.02V29.58ZM88.02 34.47H104.07V36.96H88.02V34.47ZM82.53 14.79H109.53V17.43H82.53V14.79ZM85.74 19.8H106.17V38.52H103.23V22.29H88.59V38.52H85.74V19.8ZM94.56 16.26L98.1 16.41C97.47 18.24 96.66 20.1 96.06 21.39L93.3 21.03C93.81 19.65 94.32 17.67 94.56 16.26ZM101.67 10.62L104.85 11.4C103.74 13.05 102.42 14.73 101.37 15.87L98.88 15.12C99.84 13.86 101.01 12 101.67 10.62ZM87.51 11.64L90.03 10.53C91.14 11.58 92.34 13.08 92.94 14.1L90.3 15.45C89.79 14.43 88.59 12.78 87.51 11.64ZM135.75 11.22H138.57V35.01C138.57 36.75 138.15 37.5 137.07 37.95C135.96 38.4 134.16 38.46 131.37 38.46C131.22 37.71 130.77 36.48 130.38 35.73C132.39 35.82 134.34 35.79 134.94 35.79C135.51 35.76 135.75 35.58 135.75 35.01V11.22ZM129.93 14.16H132.66V30.99H129.93V14.16ZM116.37 21.63H124.8V24.12H116.37V21.63ZM115.14 21.63H117.9V34.26C117.9 35.43 118.14 35.64 119.61 35.64C120.3 35.64 123.48 35.64 124.35 35.64C125.67 35.64 125.88 35.01 126.06 31.59C126.66 32.07 127.77 32.49 128.52 32.67C128.19 36.87 127.41 38.07 124.56 38.07C123.81 38.07 120 38.07 119.31 38.07C116.13 38.07 115.14 37.29 115.14 34.26V21.63ZM123.75 21.63H126.48C126.48 21.63 126.45 22.35 126.42 22.68C126.18 27.78 125.85 29.88 125.16 30.66C124.65 31.26 124.11 31.47 123.33 31.56C122.67 31.62 121.47 31.65 120.24 31.59C120.18 30.84 119.91 29.85 119.52 29.16C120.6 29.28 121.56 29.31 122.01 29.31C122.4 29.31 122.64 29.25 122.88 29.01C123.27 28.53 123.54 26.76 123.75 22.02V21.63ZM119.76 13.86L121.65 12.24C124.17 14.82 127.44 18.36 128.94 20.61L126.87 22.56C125.43 20.25 122.28 16.53 119.76 13.86ZM120.18 10.68L122.79 11.49C120.81 16.05 117.63 20.31 113.73 23.31C113.28 22.71 112.29 21.72 111.66 21.27C115.41 18.66 118.59 14.55 120.18 10.68Z" fill="white"/>
</svg>
