<svg width="201" height="66" viewBox="0 0 201 66" fill="none" xmlns="http://www.w3.org/2000/svg">
<path d="M196.145 2L150.285 47.4961H17.4521C16.3966 47.4962 15.384 47.9136 14.6348 48.6572L2 61.1973V2H196.145Z" fill="#2366F9" stroke="#D8E4FF" stroke-width="4" stroke-linejoin="round"/>
<path d="M22.77 19.08H49.29V21.99H22.77V19.08ZM37.74 20.25C39.63 27.33 43.59 33.21 49.86 35.79C49.14 36.42 48.21 37.65 47.73 38.46C41.07 35.34 37.14 29.07 34.89 20.91L37.74 20.25ZM34.44 10.71H37.53C37.41 19.14 37.35 32.37 24.33 38.46C23.88 37.71 23.01 36.69 22.2 36.09C34.74 30.57 34.35 18.3 34.44 10.71ZM53.64 25.68H78.54V28.44H53.64V25.68ZM58.95 19.89H73.14V22.5H58.95V19.89ZM69.24 30.42L71.64 29.16C74.31 31.5 77.13 34.71 78.48 36.96L75.93 38.52C74.67 36.24 71.82 32.82 69.24 30.42ZM66 10.62L68.64 11.82C65.31 16.53 60.12 20.43 54.09 23.16C53.67 22.44 52.71 21.21 52.05 20.67C57.87 18.33 63.21 14.58 66 10.62ZM66.57 11.91C69.09 14.82 74.67 18.54 80.07 20.34C79.44 20.91 78.51 22.08 78.06 22.83C72.78 20.7 67.35 16.56 64.68 13.47L66.57 11.91ZM55.71 37.95C55.56 37.32 55.08 35.82 54.75 35.04C55.47 34.89 56.13 34.35 57.09 33.48C58.08 32.67 61.11 29.52 63.18 26.31L65.85 28.08C63.48 31.17 60.57 34.23 57.75 36.39V36.48C57.75 36.48 55.71 37.35 55.71 37.95ZM55.71 37.95L55.68 35.67L57.6 34.62L75 33.45C75.09 34.23 75.36 35.4 75.54 36C58.95 37.32 57.06 37.44 55.71 37.95ZM100.29 22.74H103.29V38.58H100.29V22.74ZM89.01 22.77H92.01V26.46C92.01 30.48 91.32 35.28 85.32 38.58C84.81 37.92 83.7 36.93 82.95 36.48C88.44 33.6 89.01 29.7 89.01 26.4V22.77ZM95.88 10.41L98.19 12C95.1 16.92 89.19 21.57 83.43 23.85C83.04 23.04 82.32 21.87 81.69 21.15C87.42 19.32 93.15 14.97 95.88 10.41ZM97.29 12.3C99.93 15.96 105.15 19.38 110.46 20.79C109.8 21.42 108.87 22.65 108.42 23.46C102.96 21.69 97.83 17.82 94.8 13.32L97.29 12.3ZM113.01 30.72C112.89 30.18 112.47 28.95 112.17 28.26C112.89 28.11 113.61 27.42 114.6 26.34C115.71 25.26 119.04 21.15 121.29 17.07L123.51 18.54C120.99 22.56 117.87 26.49 114.81 29.34V29.4C114.81 29.4 113.01 30.21 113.01 30.72ZM113.01 30.72L112.86 28.53L114.15 27.63L123.27 26.01C123.18 26.73 123.18 27.78 123.24 28.35C114.93 29.97 113.73 30.3 113.01 30.72ZM112.74 23.46C112.59 22.89 112.17 21.57 111.84 20.85C112.47 20.7 112.98 20.04 113.67 19.05C114.39 18.09 116.7 14.28 117.99 10.74L120.54 11.97C118.89 15.57 116.58 19.35 114.33 22.02V22.08C114.33 22.08 112.74 22.95 112.74 23.46ZM112.74 23.46L112.68 21.48L113.94 20.67L120.09 20.1C119.94 20.79 119.85 21.78 119.85 22.32C114.27 22.98 113.31 23.19 112.74 23.46ZM112.08 34.23C114.78 33.69 118.89 32.82 122.88 31.89L123.15 34.29C119.43 35.22 115.56 36.18 112.59 36.93L112.08 34.23ZM125.76 34.59H137.13V37.17H125.76V34.59ZM123.69 12.15H137.43V14.73H123.69V12.15ZM124.68 26.04H138.51V38.4H135.69V28.59H127.35V38.52H124.68V26.04ZM136.23 12.15H138.96C138.96 12.15 138.96 12.9 138.93 13.26C138.63 19.83 138.3 22.41 137.55 23.34C136.98 23.97 136.41 24.21 135.54 24.33C134.79 24.42 133.47 24.42 132.12 24.36C132.06 23.58 131.76 22.47 131.31 21.75C132.54 21.87 133.74 21.87 134.22 21.87C134.7 21.87 134.94 21.81 135.21 21.54C135.72 20.97 135.99 18.66 136.23 12.6V12.15ZM128.43 13.05H131.22C130.71 18.27 129.48 22.68 124.14 25.11C123.84 24.45 123.06 23.46 122.46 22.98C127.14 21 128.04 17.28 128.43 13.05Z" fill="white"/>
</svg>
