<svg width="232" height="66" viewBox="0 0 232 66" fill="none" xmlns="http://www.w3.org/2000/svg">
<path d="M226.645 2L180.785 47.4961H17.4521C16.3966 47.4962 15.384 47.9136 14.6348 48.6572L2 61.1973V2H226.645Z" fill="#2366F9"/>
<path d="M226.645 2L180.785 47.4961H17.4521C16.3966 47.4962 15.384 47.9136 14.6348 48.6572L2 61.1973V2H226.645Z" stroke="white" stroke-width="4"/>
<path d="M226.645 2L180.785 47.4961H17.4521C16.3966 47.4962 15.384 47.9136 14.6348 48.6572L2 61.1973V2H226.645Z" stroke="#D8E4FF" stroke-width="4"/>
<path d="M21.72 26.31C24.06 25.74 27.54 24.75 30.87 23.73L31.26 26.28C28.2 27.27 24.96 28.29 22.41 29.07L21.72 26.31ZM22.17 16.59H30.93V19.2H22.17V16.59ZM25.68 10.71H28.26V35.34C28.26 36.75 27.99 37.47 27.18 37.92C26.37 38.37 25.17 38.46 23.25 38.46C23.16 37.77 22.83 36.6 22.47 35.85C23.7 35.88 24.81 35.88 25.17 35.85C25.53 35.85 25.68 35.73 25.68 35.34V10.71ZM43.59 26.91L46.02 25.86C47.82 29.25 49.74 33.66 50.43 36.42L47.76 37.68C47.1 34.92 45.3 30.36 43.59 26.91ZM36.36 14.43L38.67 13.5C40.26 16.35 41.94 20.07 42.51 22.41L39.99 23.52C39.48 21.18 37.89 17.34 36.36 14.43ZM44.91 11.46L47.76 11.55C47.31 24.24 45.93 33.03 39.45 38.43C39.06 37.92 37.8 36.81 37.14 36.33C43.44 31.71 44.61 23.25 44.91 11.46ZM32.97 36.06L32.37 33.24L33.09 32.16L40.23 27.12C40.5 27.87 40.95 28.89 41.25 29.46C34.53 34.38 33.57 35.25 32.97 36.06ZM32.94 36.03C32.67 35.46 31.95 34.41 31.47 33.96C32.07 33.51 32.97 32.49 32.97 30.96V11.97H35.73V32.79C35.73 32.79 32.94 34.98 32.94 36.03ZM62.46 18.18V19.74H66.93V18.18H62.46ZM62.46 14.91V16.44H66.93V14.91H62.46ZM60.21 13.11H69.3V21.54H60.21V13.11ZM63.78 10.68L66.57 10.98C66.06 12.21 65.43 13.5 65.01 14.4L63 13.98C63.3 12.99 63.63 11.64 63.78 10.68ZM59.4 23.28H70.02V25.26H59.4V23.28ZM72.03 15.27H79.56V17.7H72.03V15.27ZM63.03 26.73H67.77V28.71H63.03V26.73ZM66.99 26.73H69.33C69.33 26.73 69.3 27.27 69.27 27.57C69.09 30.87 68.85 32.28 68.31 32.88C67.92 33.33 67.47 33.48 66.84 33.54C66.36 33.6 65.49 33.6 64.59 33.57C64.56 32.97 64.35 32.16 64.08 31.65C64.83 31.74 65.4 31.74 65.73 31.74C66.03 31.77 66.21 31.74 66.39 31.53C66.63 31.17 66.84 30.03 66.99 27.03V26.73ZM62.13 24.3H64.5C64.29 28.41 63.6 31.71 60.69 33.69C60.42 33.15 59.73 32.37 59.22 31.98C61.53 30.39 61.98 27.63 62.13 24.3ZM72.09 10.83L74.37 11.16C73.71 15.75 72.54 20.19 70.77 23.1C70.38 22.71 69.39 22.02 68.82 21.72C70.53 19.08 71.55 14.97 72.09 10.83ZM76.11 16.83L78.48 17.01C77.67 25.08 75.63 30.75 70.89 34.35C70.56 33.9 69.69 32.94 69.18 32.55C73.71 29.46 75.48 24.12 76.11 16.83ZM70.86 22.5L72.78 21.39C75.18 24.81 77.97 29.34 79.29 32.22L77.25 33.54C75.96 30.6 73.17 25.95 70.86 22.5ZM58.38 21.72V33.21H55.65V24.36H52.38V21.72H58.38ZM52.77 13.23L55.02 11.97C56.55 13.56 58.32 15.72 59.1 17.19L56.64 18.63C55.92 17.16 54.24 14.91 52.77 13.23ZM57 31.89C58.02 31.89 58.74 32.76 60.45 33.78C62.46 34.98 65.19 35.19 68.64 35.19C72.21 35.19 77.01 34.92 80.07 34.53C79.74 35.25 79.29 36.6 79.26 37.38C77.04 37.5 71.61 37.71 68.55 37.71C64.68 37.71 62.1 37.38 59.91 36.09C58.62 35.34 57.57 34.35 56.94 34.35C56.13 34.35 54.96 36.24 53.88 38.1L52.02 35.52C53.85 33.33 55.68 31.89 57 31.89ZM62.97 22.14L65.16 21.39C65.76 22.14 66.36 23.13 66.6 23.85L64.32 24.75C64.08 24.03 63.54 22.92 62.97 22.14ZM83.85 12.99L85.68 11.25C87.27 12.6 89.37 14.49 90.36 15.72L88.44 17.73C87.48 16.44 85.44 14.43 83.85 12.99ZM86.25 38.1L85.65 35.46L86.31 34.44L91.89 30.24C92.07 30.99 92.52 32.1 92.82 32.64C87.6 36.72 86.7 37.44 86.25 38.1ZM82.14 20.04H87.99V22.77H82.14V20.04ZM86.25 38.1C86.01 37.44 85.29 36.24 84.81 35.7C85.41 35.31 86.28 34.35 86.28 33V20.04H89.01V35.13C89.01 35.13 86.25 37.08 86.25 38.1ZM95.67 27.99H105.63V29.91H95.67V27.99ZM92.37 12.93H108.96V15H92.37V12.93ZM93.15 16.62H108.06V18.6H93.15V16.62ZM91.47 20.31H109.89V22.41H91.47V20.31ZM95.61 32.04H105.63V33.99H95.61V32.04ZM93.57 23.91H105.66V26.04H96.21V38.52H93.57V23.91ZM104.94 23.91H107.61V35.61C107.61 36.93 107.37 37.65 106.41 38.04C105.48 38.46 104.07 38.49 101.94 38.46C101.85 37.77 101.49 36.72 101.16 36.03C102.54 36.09 103.98 36.09 104.4 36.06C104.79 36.06 104.94 35.94 104.94 35.58V23.91ZM99.15 10.68H101.97V21H99.15V10.68ZM120.75 16.44H139.26V19.2H120.75V16.44ZM113.1 12.48L115.53 11.25C117 12.99 118.65 15.36 119.31 16.98L116.7 18.39C116.1 16.77 114.54 14.31 113.1 12.48ZM128.25 10.77H131.19C130.95 20.49 130.44 28.8 122.25 33.06C121.89 32.37 121.02 31.35 120.36 30.84C127.92 27.03 128.07 19.65 128.25 10.77ZM119.04 21.75V33.03H116.19V24.48H112.29V21.75H119.04ZM117.6 31.68C118.62 31.68 119.34 32.61 121.05 33.66C123.06 34.89 125.67 35.1 129.12 35.1C132.51 35.1 137.13 34.83 140.04 34.44C139.71 35.22 139.26 36.66 139.2 37.47C137.16 37.62 131.91 37.8 129 37.8C125.19 37.8 122.67 37.44 120.51 36.12C119.19 35.34 118.2 34.29 117.54 34.29C116.58 34.29 115.17 36.24 113.82 38.25L111.87 35.52C113.94 33.24 116.07 31.68 117.6 31.68ZM127.86 22.47L130.14 21C133.53 24.12 137.43 28.35 139.35 31.11L136.95 32.91C135.12 30.09 131.16 25.65 127.86 22.47ZM154.23 10.77H157.44C157.29 16.47 157.08 31.38 144.42 38.46C143.91 37.71 142.98 36.81 142.08 36.18C154.47 29.76 154.11 15.6 154.23 10.77ZM157.14 14.43C157.38 16.71 158.49 30.69 170.1 35.88C169.26 36.54 168.45 37.5 168.03 38.31C155.97 32.61 154.83 17.52 154.41 14.73L157.14 14.43Z" fill="white"/>
</svg>
