<svg width="201" height="66" viewBox="0 0 201 66" fill="none" xmlns="http://www.w3.org/2000/svg">
<path d="M196.145 2L150.285 47.4961H17.4521C16.3966 47.4962 15.384 47.9136 14.6348 48.6572L2 61.1973V2H196.145Z" fill="#2366F9"/>
<path d="M196.145 2L150.285 47.4961H17.4521C16.3966 47.4962 15.384 47.9136 14.6348 48.6572L2 61.1973V2H196.145Z" stroke="white" stroke-width="4"/>
<path d="M196.145 2L150.285 47.4961H17.4521C16.3966 47.4962 15.384 47.9136 14.6348 48.6572L2 61.1973V2H196.145Z" stroke="#D8E4FF" stroke-width="4"/>
<path d="M29.74 22.14H49.33V24.54H29.74V22.14ZM28.99 27.24H50.56V29.67H28.99V27.24ZM33.94 19.53H36.55V28.47H33.94V19.53ZM41.92 19.53H44.59V28.44H41.92V19.53ZM26.05 12.06H28.93V20.91C28.93 26.1 28.48 33.66 25.33 38.58C24.76 38.16 23.5 37.41 22.81 37.14C25.81 32.46 26.05 25.71 26.05 20.91V12.06ZM27.79 12.06H48.85V19.53H27.79V17.07H46V14.49H27.79V12.06ZM40.24 28.17C41.89 32.31 45.58 35.16 50.92 36.21C50.35 36.75 49.6 37.8 49.24 38.55C43.54 37.11 39.85 33.78 37.87 28.71L40.24 28.17ZM47.08 29.58L49.21 31.05C47.59 32.28 45.46 33.48 43.84 34.29L42.04 32.91C43.6 32.07 45.82 30.63 47.08 29.58ZM31.54 38.61L31.42 36.51L32.53 35.61L40.45 33.93C40.33 34.65 40.24 35.73 40.27 36.3C33.1 37.98 32.14 38.25 31.54 38.61ZM31.54 38.64C31.39 37.98 30.85 36.84 30.46 36.3C31.03 35.97 31.96 35.19 31.96 33.78V28.35L34.6 28.44V35.7C34.6 35.7 31.54 37.62 31.54 38.64ZM54.64 25.68H79.54V28.44H54.64V25.68ZM59.95 19.89H74.14V22.5H59.95V19.89ZM70.24 30.42L72.64 29.16C75.31 31.5 78.13 34.71 79.48 36.96L76.93 38.52C75.67 36.24 72.82 32.82 70.24 30.42ZM67 10.62L69.64 11.82C66.31 16.53 61.12 20.43 55.09 23.16C54.67 22.44 53.71 21.21 53.05 20.67C58.87 18.33 64.21 14.58 67 10.62ZM67.57 11.91C70.09 14.82 75.67 18.54 81.07 20.34C80.44 20.91 79.51 22.08 79.06 22.83C73.78 20.7 68.35 16.56 65.68 13.47L67.57 11.91ZM56.71 37.95C56.56 37.32 56.08 35.82 55.75 35.04C56.47 34.89 57.13 34.35 58.09 33.48C59.08 32.67 62.11 29.52 64.18 26.31L66.85 28.08C64.48 31.17 61.57 34.23 58.75 36.39V36.48C58.75 36.48 56.71 37.35 56.71 37.95ZM56.71 37.95L56.68 35.67L58.6 34.62L76 33.45C76.09 34.23 76.36 35.4 76.54 36C59.95 37.32 58.06 37.44 56.71 37.95ZM100.12 28.8H103.15V34.65C103.15 35.46 103.3 35.58 104.17 35.58C104.53 35.58 106.27 35.58 106.75 35.58C107.53 35.58 107.68 35.13 107.8 32.43C108.37 32.85 109.57 33.3 110.35 33.48C110.08 37.08 109.33 38.04 107.08 38.04C106.48 38.04 104.23 38.04 103.69 38.04C100.81 38.04 100.12 37.23 100.12 34.68V28.8ZM90.79 28.8H93.73C93.43 34.41 92.17 37.14 85.09 38.52C84.85 37.83 84.13 36.69 83.56 36.12C89.74 35.13 90.55 33.27 90.79 28.8ZM83.62 13.29H110.29V15.66H83.62V13.29ZM84.07 24.84H109.84V30.18H107.05V27.06H86.77V30.21H84.07V24.84ZM90.7 19.11V21.3H103.27V19.11H90.7ZM87.88 17.16H106.27V23.25H87.88V17.16ZM94.72 11.04L97.57 10.44C98.2 11.37 98.86 12.66 99.13 13.53L96.13 14.19C95.89 13.35 95.29 12.03 94.72 11.04ZM91.69 28.8H102.04V31.17H91.69V28.8ZM125.35 10.68H128.23V21H125.35V10.68ZM119.5 22.35V27.06H134.35V22.35H119.5ZM116.8 19.71H137.23V29.7H116.8V19.71ZM126.7 13.65H139.36V16.32H126.7V13.65ZM121.9 32.16L124.6 31.92C125.05 33.9 125.38 36.42 125.41 37.95L122.53 38.31C122.53 36.75 122.29 34.17 121.9 32.16ZM128.11 32.19L130.69 31.65C131.59 33.48 132.61 35.94 132.97 37.5L130.18 38.19C129.88 36.66 128.98 34.11 128.11 32.19ZM134.23 31.98L136.75 31.05C138.25 32.94 139.99 35.52 140.74 37.23L138.01 38.31C137.35 36.63 135.7 33.93 134.23 31.98ZM117.01 31.26L119.71 31.95C118.78 34.32 117.28 36.87 115.69 38.49L113.08 37.2C114.61 35.88 116.11 33.45 117.01 31.26Z" fill="white"/>
</svg>
