<svg width="160" height="44" viewBox="0 0 160 44" fill="none" xmlns="http://www.w3.org/2000/svg">
<rect width="160" height="44" rx="4" fill="white"/>
<path d="M41.78 17.62H58.26V20.04H41.78V17.62ZM40.88 29.62H59.12V32.04H40.88V29.62ZM44.28 21.2L46.68 20.6C47.44 23.14 48.18 26.3 48.52 28.46L45.94 29.14C45.7 27 44.94 23.68 44.28 21.2ZM53.32 20.66L56.02 21.18C55.16 24.52 53.94 28.22 52.92 30.6L50.54 30.04C51.6 27.6 52.74 23.66 53.32 20.66ZM48.12 14.38L50.5 13.78C50.92 14.8 51.36 16.12 51.6 17L49.08 17.72C48.92 16.82 48.48 15.42 48.12 14.38ZM62.64 18.86H68.7V21H62.64V18.86ZM62.58 15.02H70.28V24.96H62.58V22.82H67.88V17.16H62.58V15.02ZM61.82 32.38L61.56 30.22L62.5 29.42L68.2 27.78C68.38 28.44 68.7 29.32 68.92 29.84C63.3 31.62 62.4 31.96 61.82 32.38ZM66 26.48L68.06 25.46C69.06 27.1 70.3 29.3 70.84 30.7L68.6 31.9C68.14 30.48 66.98 28.2 66 26.48ZM61.82 32.38C61.68 31.68 61.26 30.5 60.88 29.92C61.32 29.7 61.82 29.3 61.82 28.52V15.02H64.26V30.52C64.26 30.52 61.82 31.44 61.82 32.38ZM76.22 15.16H78.58V26.72C78.58 27.82 78.42 28.46 77.74 28.84C77.08 29.22 76.16 29.26 74.86 29.26C74.8 28.6 74.52 27.6 74.22 26.98C74.92 27.02 75.68 27.02 75.9 27C76.14 27 76.22 26.94 76.22 26.68V15.16ZM71.42 15.16H77.38V17.36H73.82V32.8H71.42V15.16ZM89.92 21.7H97.02V23.86H89.92V21.7ZM92.66 22.98C93.78 26.42 96.12 29.4 99.48 30.74C98.94 31.2 98.2 32.16 97.84 32.78C94.24 31.06 91.94 27.7 90.56 23.5L92.66 22.98ZM96.44 21.7H96.88L97.3 21.64L98.84 22.1C98.06 27.06 95.78 30.82 91.76 32.88C91.4 32.3 90.7 31.52 90.14 31.06C93.84 29.36 95.86 26.16 96.44 22.16V21.7ZM95.92 14.72H98.38C98.38 14.72 98.36 15.32 98.34 15.62C98.24 18.44 98.04 19.68 97.56 20.22C97.1 20.72 96.46 20.86 95.74 20.94C95.06 20.98 93.86 20.98 92.6 20.92C92.58 20.34 92.3 19.5 92 18.98C93.14 19.06 94.26 19.08 94.68 19.08C95.08 19.08 95.28 19.06 95.48 18.9C95.74 18.62 95.84 17.54 95.92 15.06V14.72ZM80.46 24.18C82.3 23.8 85 23.14 87.54 22.5L87.82 24.84C85.5 25.48 82.98 26.14 81 26.64L80.46 24.18ZM80.74 17.82H87.64V20.16H80.74V17.82ZM83.26 14.02H85.72V30.1C85.72 31.36 85.46 31.98 84.72 32.34C83.98 32.72 82.9 32.78 81.3 32.78C81.22 32.14 80.9 31.14 80.58 30.5C81.5 30.54 82.52 30.52 82.82 30.52C83.16 30.52 83.26 30.42 83.26 30.1V14.02ZM88.18 14.72H96.66V16.94H90.56V32.72H88.18V14.72ZM106.38 29.74H115.46V31.92H106.38V29.74ZM106.62 15.98H115.44V18.16H106.62V15.98ZM107.62 13.9L110.34 14.48C108.56 17.08 106.14 19.36 102.58 21.16C102.24 20.56 101.48 19.66 100.92 19.24C104.22 17.82 106.42 15.8 107.62 13.9ZM114.6 15.98H115.06L115.46 15.86L117.12 16.84C114.38 22.52 108.24 25.88 101.78 27.42C101.54 26.76 101 25.74 100.54 25.2C106.58 23.98 112.44 20.88 114.6 16.36V15.98ZM104.7 20.96L106.58 19.58C107.84 20.48 109.6 21.82 110.46 22.76L108.46 24.3C107.68 23.38 106 21.94 104.7 20.96ZM114.68 23.78H117.16V32.8H114.68V23.78ZM107.16 23.78H115.3V25.96H107.16V32.78H104.74V25.56L106.58 23.78H107.16Z" fill="#2366F9"/>
</svg>
