<svg width="1300" height="469" viewBox="0 0 1300 469" fill="none" xmlns="http://www.w3.org/2000/svg">
<rect x="23.5" y="23.5" width="396" height="119" rx="7.5" fill="white" stroke="#2366F9"/>
<path d="M66 70L70.86 55.28H73.56L78.42 70H75.96L73.6 62.02C73.1 60.42 72.66 58.76 72.2 57.12H72.12C71.68 58.78 71.24 60.42 70.74 62.02L68.36 70H66ZM68.74 65.82V64H75.62V65.82H68.74ZM79.9614 70V55.28H82.3014V70H79.9614ZM93.1777 58.72H110.858V60.66H93.1777V58.72ZM103.158 59.5C104.418 64.22 107.058 68.14 111.238 69.86C110.758 70.28 110.138 71.1 109.818 71.64C105.378 69.56 102.758 65.38 101.258 59.94L103.158 59.5ZM100.958 53.14H103.018C102.938 58.76 102.898 67.58 94.2177 71.64C93.9177 71.14 93.3377 70.46 92.7977 70.06C101.158 66.38 100.898 58.2 100.958 53.14ZM118.898 54.66H130.518V56.24H118.898V54.66ZM118.518 65.78H130.538V67.36H118.518V65.78ZM121.578 53.14H123.378V57.58H121.578V53.14ZM126.118 53.14H127.958V57.58H126.118V53.14ZM121.378 61.78V62.98H127.698V61.78H121.378ZM121.378 59.32V60.48H127.698V59.32H121.378ZM119.618 57.96H129.538V64.34H119.618V57.96ZM123.618 64.12H125.458C125.078 68.02 123.998 70.46 118.858 71.7C118.698 71.26 118.238 70.56 117.878 70.18C122.498 69.22 123.298 67.28 123.618 64.12ZM125.898 66.32C126.698 68.26 128.478 69.6 131.038 70.12C130.638 70.48 130.118 71.2 129.858 71.68C127.078 70.92 125.238 69.2 124.298 66.66L125.898 66.32ZM112.518 56.94H118.638V58.68H112.518V56.94ZM114.878 53.12H116.678V71.68H114.878V53.12ZM115.038 58.16L116.118 58.56C115.558 61.8 114.378 65.76 113.058 67.82C112.858 67.28 112.418 66.42 112.098 65.94C113.378 64.2 114.538 60.84 115.038 58.16ZM116.578 59.32C117.038 59.94 118.718 62.62 119.078 63.26L117.918 64.6C117.478 63.46 116.238 60.96 115.678 60.04L116.578 59.32ZM133.098 53.9H142.178V55.56H133.098V53.9ZM132.438 58.04H142.618V59.7H132.438V58.04ZM132.118 69.26H150.218V71.02H132.118V69.26ZM134.178 65.4H148.178V67.12H134.178V65.4ZM138.738 54.56H140.518V63.82H138.738V54.56ZM140.278 63.46H142.218V70.52H140.278V63.46ZM143.678 54.28H145.418V61.02H143.678V54.28ZM147.378 53.3H149.178V62.08C149.178 63.04 148.998 63.5 148.338 63.78C147.678 64.06 146.678 64.08 145.258 64.08C145.178 63.6 144.918 62.88 144.658 62.4C145.718 62.44 146.698 62.44 146.998 62.4C147.298 62.4 147.378 62.32 147.378 62.06V53.3ZM134.858 54.58H136.598V58.06C136.598 60.2 136.078 62.76 133.398 64.34C133.138 63.98 132.498 63.28 132.158 63.02C134.558 61.64 134.858 59.72 134.858 58.02V54.58ZM151.778 56.2H169.798V57.94H151.778V56.2ZM153.978 62.8H159.398V64.24H153.978V62.8ZM153.978 65.94H159.398V67.38H153.978V65.94ZM162.678 59.74H164.438V67.94H162.678V59.74ZM158.738 59.54H160.558V69.7C160.558 70.56 160.378 71.04 159.778 71.32C159.178 71.6 158.278 71.62 156.978 71.62C156.878 71.14 156.598 70.44 156.358 69.98C157.238 70.02 158.118 70.02 158.378 70C158.658 70 158.738 69.92 158.738 69.66V59.54ZM166.718 59.16H168.578V69.5C168.578 70.5 168.358 71 167.678 71.3C166.998 71.58 165.958 71.64 164.438 71.62C164.338 71.12 164.038 70.32 163.758 69.82C164.898 69.86 165.958 69.86 166.298 69.84C166.618 69.84 166.718 69.76 166.718 69.48V59.16ZM154.738 53.74L156.498 53.1C157.258 53.92 158.098 55.06 158.458 55.84L156.558 56.5C156.258 55.76 155.478 54.58 154.738 53.74ZM165.018 53.04L167.058 53.68C166.278 54.94 165.378 56.28 164.658 57.18L162.958 56.58C163.678 55.64 164.538 54.14 165.018 53.04ZM152.978 59.54H159.298V61.14H154.758V71.58H152.978V59.54ZM178.238 62.94H188.178V71.64H186.258V64.7H180.058V71.72H178.238V62.94ZM179.278 68.8H187.158V70.56H179.278V68.8ZM179.898 54.06H185.978V55.82H179.898V54.06ZM179.278 54.06H181.118V56.32C181.118 58.48 180.458 61.14 177.498 62.84C177.278 62.44 176.618 61.68 176.258 61.4C178.898 59.94 179.278 57.94 179.278 56.26V54.06ZM185.058 54.06H186.898V59.52C186.898 60.14 186.938 60.36 187.238 60.36C187.478 60.36 188.118 60.36 188.378 60.36C188.638 60.36 189.098 60.32 189.358 60.26C189.378 60.72 189.418 61.32 189.498 61.74C189.238 61.86 188.798 61.88 188.398 61.88C188.098 61.88 187.278 61.88 186.998 61.88C185.378 61.88 185.058 61.14 185.058 59.48V54.06ZM172.058 54.78L173.258 53.58C174.478 54.24 176.118 55.26 176.938 55.98L175.678 57.34C174.918 56.58 173.318 55.5 172.058 54.78ZM171.018 60.2L172.198 58.98C173.418 59.58 175.078 60.52 175.938 61.2L174.698 62.56C173.898 61.88 172.258 60.86 171.018 60.2ZM171.498 70.08C172.638 68.6 174.278 66.08 175.558 63.82L176.918 65.14C175.778 67.22 174.358 69.58 173.078 71.46L171.498 70.08ZM199.218 57.34H205.818V58.9H199.218V57.34ZM196.418 53.92H207.358V55.62H198.198V71.68H196.418V53.92ZM200.478 60.6H205.278V67.12H200.478V65.54H203.738V62.2H200.478V60.6ZM206.778 53.92H208.598V69.44C208.598 70.46 208.398 71.04 207.758 71.34C207.118 71.68 206.138 71.7 204.578 71.7C204.518 71.2 204.258 70.32 203.998 69.82C205.038 69.86 206.058 69.84 206.378 69.84C206.678 69.84 206.778 69.74 206.778 69.4V53.92ZM199.718 60.6H201.198V68.34H199.718V60.6ZM191.578 54.82L192.638 53.42C193.778 53.96 195.418 54.8 196.218 55.42L195.118 56.96C194.338 56.32 192.758 55.4 191.578 54.82ZM190.618 60.2L191.598 58.76C192.818 59.24 194.478 60.08 195.338 60.68L194.278 62.26C193.498 61.66 191.838 60.76 190.618 60.2ZM191.158 70.06C192.158 68.56 193.558 66.04 194.618 63.8L196.078 65.06C195.138 67.12 193.918 69.46 192.838 71.34L191.158 70.06ZM214.958 56.6L216.618 56.88C215.578 58.76 213.918 60.5 211.378 61.84C211.158 61.46 210.678 60.92 210.338 60.68C212.678 59.58 214.198 58.02 214.958 56.6ZM215.098 57.82H218.418V59.04H214.078L215.098 57.82ZM217.998 57.8H218.318L218.598 57.74L219.658 58.24C218.198 62.18 214.818 64.7 211.238 65.94C211.038 65.54 210.618 64.92 210.298 64.6C213.598 63.62 216.818 61.26 217.998 58.08V57.8ZM220.958 57.8H226.238V59.26H220.958V57.8ZM216.298 62.32H223.098V63.9H216.298V62.32ZM212.838 65.16H226.438V66.78H212.838V65.16ZM220.698 56.6C221.978 60.24 224.758 62.82 228.998 63.78C228.618 64.14 228.138 64.84 227.898 65.3C223.458 64.08 220.698 61.22 219.218 56.98L220.698 56.6ZM218.898 65.82H220.738V69.78C220.738 70.66 220.558 71.1 219.878 71.36C219.218 71.6 218.218 71.6 216.818 71.6C216.738 71.1 216.478 70.46 216.258 70C217.278 70.04 218.258 70.04 218.538 70.02C218.818 70.02 218.898 69.94 218.898 69.72V65.82ZM215.298 67.06L217.018 67.66C215.818 69.14 213.778 70.52 211.998 71.36C211.718 71 211.098 70.28 210.698 69.96C212.438 69.3 214.278 68.22 215.298 67.06ZM222.178 68.16L223.438 67.04C225.058 67.84 227.238 69.1 228.378 69.98L227.038 71.26C225.998 70.4 223.838 69.06 222.178 68.16ZM214.238 60.5L215.218 59.7C215.918 60.12 216.758 60.74 217.198 61.2L216.178 62.08C215.778 61.64 214.938 60.96 214.238 60.5ZM212.258 61.92L213.418 61.24C214.058 61.7 214.858 62.4 215.238 62.9L214.038 63.66C213.678 63.16 212.918 62.44 212.258 61.92ZM225.678 57.8H226.038L226.378 57.7L227.458 58.4C226.638 59.98 225.318 61.7 224.078 62.76C223.838 62.42 223.358 61.94 223.038 61.68C224.078 60.78 225.178 59.26 225.678 58.12V57.8ZM210.898 54.7H228.278V57.92H226.378V56.26H212.698V57.92H210.898V54.7ZM218.158 53.44L219.998 53C220.418 53.68 220.858 54.56 221.018 55.18L219.078 55.64C218.938 55.06 218.538 54.12 218.158 53.44ZM73.54 96.28C69.74 96.28 67.12 93.34 67.12 88.58C67.12 83.84 69.74 81.02 73.54 81.02C77.32 81.02 79.94 83.86 79.94 88.58C79.94 93.34 77.32 96.28 73.54 96.28ZM73.54 94.24C75.98 94.24 77.56 92.04 77.56 88.58C77.56 85.14 75.98 83.04 73.54 83.04C71.08 83.04 69.52 85.14 69.52 88.58C69.52 92.04 71.08 94.24 73.54 94.24ZM82.3981 100.46V85H84.2781L84.4781 86.22H84.5381C85.4981 85.4 86.6781 84.72 87.9181 84.72C90.6981 84.72 92.2781 86.94 92.2781 90.34C92.2781 94.1 90.0181 96.28 87.5381 96.28C86.5581 96.28 85.5581 95.84 84.6381 95.04L84.7181 96.9V100.46H82.3981ZM87.0981 94.36C88.6781 94.36 89.8981 92.94 89.8981 90.36C89.8981 88.06 89.1381 86.64 87.2981 86.64C86.4581 86.64 85.6381 87.1 84.7181 87.98V93.36C85.5581 94.1 86.4181 94.36 87.0981 94.36ZM99.1958 96.28C96.1958 96.28 93.8358 94.14 93.8358 90.52C93.8358 86.94 96.2958 84.72 98.8558 84.72C101.756 84.72 103.336 86.82 103.336 89.94C103.336 90.4 103.296 90.84 103.236 91.12H96.0958C96.2758 93.22 97.5958 94.46 99.4958 94.46C100.476 94.46 101.296 94.16 102.116 93.64L102.916 95.12C101.896 95.8 100.636 96.28 99.1958 96.28ZM96.0558 89.52H101.336C101.336 87.62 100.496 86.54 98.8958 86.54C97.5158 86.54 96.2958 87.6 96.0558 89.52ZM105.524 96V85H107.404L107.604 86.54H107.664C108.664 85.54 109.804 84.72 111.304 84.72C113.644 84.72 114.684 86.3 114.684 89.08V96H112.364V89.38C112.364 87.46 111.804 86.72 110.524 86.72C109.504 86.72 108.804 87.24 107.844 88.2V96H105.524ZM115.884 96L120.744 81.28H123.444L128.304 96H125.844L123.484 88.02C122.984 86.42 122.544 84.76 122.084 83.12H122.004C121.564 84.78 121.124 86.42 120.624 88.02L118.244 96H115.884ZM118.624 91.82V90H125.504V91.82H118.624ZM129.846 96V81.28H132.186V96H129.846ZM138.998 97.24C137.738 95.7 136.018 93.98 134.618 92.8L136.258 91.38C137.698 92.54 139.558 94.42 140.698 95.78L138.998 97.24ZM161.238 96.28C157.318 96.28 154.418 93.52 154.418 88.68C154.418 83.88 157.398 81.02 161.298 81.02C163.378 81.02 164.778 81.94 165.678 82.86L164.418 84.36C163.678 83.62 162.778 83.04 161.378 83.04C158.618 83.04 156.818 85.16 156.818 88.6C156.818 92.1 158.438 94.24 161.478 94.24C162.378 94.24 163.278 93.98 163.778 93.52V90.08H160.878V88.16H165.898V94.54C164.918 95.54 163.238 96.28 161.238 96.28ZM173.061 96.28C170.321 96.28 167.881 94.16 167.881 90.52C167.881 86.84 170.321 84.72 173.061 84.72C175.781 84.72 178.241 86.84 178.241 90.52C178.241 94.16 175.781 96.28 173.061 96.28ZM173.061 94.38C174.781 94.38 175.881 92.84 175.881 90.52C175.881 88.18 174.781 86.64 173.061 86.64C171.321 86.64 170.241 88.18 170.241 90.52C170.241 92.84 171.321 94.38 173.061 94.38ZM184.966 96.28C182.226 96.28 179.786 94.16 179.786 90.52C179.786 86.84 182.226 84.72 184.966 84.72C187.686 84.72 190.146 86.84 190.146 90.52C190.146 94.16 187.686 96.28 184.966 96.28ZM184.966 94.38C186.686 94.38 187.786 92.84 187.786 90.52C187.786 88.18 186.686 86.64 184.966 86.64C183.226 86.64 182.146 88.18 182.146 90.52C182.146 92.84 183.226 94.38 184.966 94.38ZM196.23 100.94C193.59 100.94 191.67 99.96 191.67 98.06C191.67 97.12 192.25 96.26 193.27 95.66V95.56C192.69 95.2 192.27 94.62 192.27 93.72C192.27 92.86 192.87 92.12 193.49 91.68V91.6C192.75 91.04 192.03 89.98 192.03 88.68C192.03 86.18 194.03 84.72 196.29 84.72C196.93 84.72 197.49 84.84 197.91 85H201.79V86.74H199.71C200.13 87.18 200.43 87.9 200.43 88.74C200.43 91.16 198.59 92.52 196.29 92.52C195.81 92.52 195.25 92.42 194.75 92.2C194.41 92.5 194.15 92.82 194.15 93.36C194.15 94 194.61 94.42 195.99 94.42H198.03C200.63 94.42 201.99 95.22 201.99 97.1C201.99 99.22 199.75 100.94 196.23 100.94ZM196.29 91.04C197.43 91.04 198.37 90.14 198.37 88.68C198.37 87.2 197.45 86.36 196.29 86.36C195.15 86.36 194.23 87.2 194.23 88.68C194.23 90.14 195.17 91.04 196.29 91.04ZM196.57 99.42C198.49 99.42 199.75 98.48 199.75 97.48C199.75 96.56 199.03 96.26 197.69 96.26H196.03C195.51 96.26 195.03 96.22 194.57 96.1C193.91 96.6 193.63 97.16 193.63 97.72C193.63 98.78 194.75 99.42 196.57 99.42ZM205.893 96.28C204.233 96.28 203.613 95.2 203.613 93.42V80.08H205.933V93.54C205.933 94.16 206.193 94.38 206.473 94.38C206.573 94.38 206.653 94.38 206.853 94.34L207.153 96.08C206.853 96.18 206.473 96.28 205.893 96.28ZM213.77 96.28C210.77 96.28 208.41 94.14 208.41 90.52C208.41 86.94 210.87 84.72 213.43 84.72C216.33 84.72 217.91 86.82 217.91 89.94C217.91 90.4 217.87 90.84 217.81 91.12H210.67C210.85 93.22 212.17 94.46 214.07 94.46C215.05 94.46 215.87 94.16 216.69 93.64L217.49 95.12C216.47 95.8 215.21 96.28 213.77 96.28ZM210.63 89.52H215.91C215.91 87.62 215.07 86.54 213.47 86.54C212.09 86.54 210.87 87.6 210.63 89.52ZM230.41 96.28C226.49 96.28 223.59 93.52 223.59 88.68C223.59 83.88 226.57 81.02 230.47 81.02C232.55 81.02 233.95 81.94 234.85 82.86L233.59 84.36C232.85 83.62 231.95 83.04 230.55 83.04C227.79 83.04 225.99 85.16 225.99 88.6C225.99 92.1 227.61 94.24 230.65 94.24C231.55 94.24 232.45 93.98 232.95 93.52V90.08H230.05V88.16H235.07V94.54C234.09 95.54 232.41 96.28 230.41 96.28ZM242.414 96.28C239.414 96.28 237.054 94.14 237.054 90.52C237.054 86.94 239.514 84.72 242.074 84.72C244.974 84.72 246.554 86.82 246.554 89.94C246.554 90.4 246.514 90.84 246.454 91.12H239.314C239.494 93.22 240.814 94.46 242.714 94.46C243.694 94.46 244.514 94.16 245.334 93.64L246.134 95.12C245.114 95.8 243.854 96.28 242.414 96.28ZM239.274 89.52H244.554C244.554 87.62 243.714 86.54 242.114 86.54C240.734 86.54 239.514 87.6 239.274 89.52ZM248.742 96V85H250.622L250.822 86.54H250.882C251.822 85.54 252.922 84.72 254.282 84.72C255.922 84.72 256.842 85.48 257.302 86.74C258.402 85.6 259.522 84.72 260.902 84.72C263.182 84.72 264.262 86.3 264.262 89.08V96H261.962V89.38C261.962 87.46 261.382 86.72 260.142 86.72C259.382 86.72 258.582 87.2 257.662 88.2V96H255.362V89.38C255.362 87.46 254.782 86.72 253.522 86.72C252.782 86.72 251.942 87.2 251.062 88.2V96H248.742ZM267.209 96V85H269.529V96H267.209ZM268.369 82.94C267.509 82.94 266.949 82.4 266.949 81.56C266.949 80.74 267.509 80.2 268.369 80.2C269.209 80.2 269.789 80.74 269.789 81.56C269.789 82.4 269.209 82.94 268.369 82.94ZM272.571 96V85H274.451L274.651 86.54H274.711C275.711 85.54 276.851 84.72 278.351 84.72C280.691 84.72 281.731 86.3 281.731 89.08V96H279.411V89.38C279.411 87.46 278.851 86.72 277.571 86.72C276.551 86.72 275.851 87.24 274.891 88.2V96H272.571ZM284.651 96V85H286.971V96H284.651ZM285.811 82.94C284.951 82.94 284.391 82.4 284.391 81.56C284.391 80.74 284.951 80.2 285.811 80.2C286.651 80.2 287.231 80.74 287.231 81.56C287.231 82.4 286.651 82.94 285.811 82.94ZM293.593 97.24C292.333 95.7 290.613 93.98 289.213 92.8L290.853 91.38C292.293 92.54 294.153 94.42 295.293 95.78L293.593 97.24ZM66 122L70.86 107.28H73.56L78.42 122H75.96L73.6 114.02C73.1 112.42 72.66 110.76 72.2 109.12H72.12C71.68 110.78 71.24 112.42 70.74 114.02L68.36 122H66ZM68.74 117.82V116H75.62V117.82H68.74ZM79.7614 122V111H81.6414L81.8414 112.54H81.9014C82.9014 111.54 84.0414 110.72 85.5414 110.72C87.8814 110.72 88.9214 112.3 88.9214 115.08V122H86.6014V115.38C86.6014 113.46 86.0414 112.72 84.7614 112.72C83.7414 112.72 83.0414 113.24 82.0814 114.2V122H79.7614ZM95.5419 122.28C93.0819 122.28 92.2019 120.72 92.2019 118.42V112.84H90.6019V111.12L92.3219 111L92.5819 107.96H94.5019V111H97.3819V112.84H94.5019V118.44C94.5019 119.74 94.9819 120.44 96.1219 120.44C96.5019 120.44 96.9619 120.3 97.3019 120.16L97.7219 121.86C97.1019 122.06 96.3619 122.28 95.5419 122.28ZM99.3716 122V106.08H101.692V110.28L101.572 112.46C102.532 111.54 103.652 110.72 105.152 110.72C107.492 110.72 108.532 112.3 108.532 115.08V122H106.212V115.38C106.212 113.46 105.652 112.72 104.372 112.72C103.352 112.72 102.652 113.24 101.692 114.2V122H99.3716ZM111.393 122V111H113.273L113.473 112.98H113.533C114.313 111.56 115.473 110.72 116.653 110.72C117.193 110.72 117.533 110.8 117.873 110.96L117.473 112.96C117.093 112.84 116.813 112.78 116.353 112.78C115.473 112.78 114.393 113.42 113.713 115.16V122H111.393ZM123.285 122.28C120.545 122.28 118.105 120.16 118.105 116.52C118.105 112.84 120.545 110.72 123.285 110.72C126.005 110.72 128.465 112.84 128.465 116.52C128.465 120.16 126.005 122.28 123.285 122.28ZM123.285 120.38C125.005 120.38 126.105 118.84 126.105 116.52C126.105 114.18 125.005 112.64 123.285 112.64C121.545 112.64 120.465 114.18 120.465 116.52C120.465 118.84 121.545 120.38 123.285 120.38ZM130.769 126.46V111H132.649L132.849 112.22H132.909C133.869 111.4 135.049 110.72 136.289 110.72C139.069 110.72 140.649 112.94 140.649 116.34C140.649 120.1 138.389 122.28 135.909 122.28C134.929 122.28 133.929 121.84 133.009 121.04L133.089 122.9V126.46H130.769ZM135.469 120.36C137.049 120.36 138.269 118.94 138.269 116.36C138.269 114.06 137.509 112.64 135.669 112.64C134.829 112.64 134.009 113.1 133.089 113.98V119.36C133.929 120.1 134.789 120.36 135.469 120.36ZM142.967 122V111H145.287V122H142.967ZM144.127 108.94C143.267 108.94 142.707 108.4 142.707 107.56C142.707 106.74 143.267 106.2 144.127 106.2C144.967 106.2 145.547 106.74 145.547 107.56C145.547 108.4 144.967 108.94 144.127 108.94ZM152.809 122.28C149.849 122.28 147.569 120.16 147.569 116.52C147.569 112.84 150.109 110.72 153.009 110.72C154.409 110.72 155.429 111.28 156.209 112L155.089 113.48C154.489 112.96 153.869 112.64 153.129 112.64C151.249 112.64 149.929 114.18 149.929 116.52C149.929 118.84 151.209 120.38 153.049 120.38C153.949 120.38 154.789 119.94 155.449 119.38L156.389 120.92C155.389 121.8 154.089 122.28 152.809 122.28ZM168.293 122.28C164.613 122.28 161.753 119.52 161.753 114.68C161.753 109.88 164.693 107.02 168.413 107.02C170.253 107.02 171.673 107.9 172.573 108.86L171.333 110.36C170.573 109.58 169.653 109.04 168.453 109.04C165.913 109.04 164.153 111.16 164.153 114.6C164.153 118.1 165.793 120.24 168.393 120.24C169.733 120.24 170.773 119.64 171.633 118.68L172.893 120.14C171.713 121.52 170.213 122.28 168.293 122.28ZM177.162 122.28C175.502 122.28 174.882 121.2 174.882 119.42V106.08H177.202V119.54C177.202 120.16 177.462 120.38 177.742 120.38C177.842 120.38 177.922 120.38 178.122 120.34L178.422 122.08C178.122 122.18 177.742 122.28 177.162 122.28ZM183.04 122.28C181.16 122.28 179.82 121.02 179.82 119.08C179.82 116.72 181.82 115.5 186.38 115C186.36 113.72 185.9 112.6 184.3 112.6C183.12 112.6 182.04 113.14 181.12 113.74L180.26 112.16C181.38 111.46 182.94 110.72 184.7 110.72C187.42 110.72 188.7 112.46 188.7 115.4V122H186.8L186.62 120.76H186.54C185.54 121.62 184.36 122.28 183.04 122.28ZM183.76 120.44C184.72 120.44 185.48 120 186.38 119.16V116.48C183.12 116.86 182.04 117.68 182.04 118.92C182.04 120 182.78 120.44 183.76 120.44ZM194.783 122.28C192.443 122.28 191.403 120.72 191.403 117.92V111H193.703V117.64C193.703 119.54 194.263 120.28 195.563 120.28C196.583 120.28 197.283 119.8 198.203 118.64V111H200.503V122H198.603L198.423 120.34H198.363C197.363 121.5 196.303 122.28 194.783 122.28ZM207.346 122.28C204.586 122.28 202.826 120.16 202.826 116.52C202.826 112.94 205.086 110.72 207.526 110.72C208.786 110.72 209.606 111.2 210.486 111.98L210.386 110.14V106.08H212.706V122H210.806L210.626 120.78H210.566C209.726 121.62 208.586 122.28 207.346 122.28ZM207.906 120.36C208.806 120.36 209.606 119.94 210.386 119.02V113.66C209.586 112.92 208.806 112.64 207.986 112.64C206.446 112.64 205.206 114.12 205.206 116.5C205.206 118.98 206.186 120.36 207.906 120.36ZM220.343 122.28C217.343 122.28 214.983 120.14 214.983 116.52C214.983 112.94 217.443 110.72 220.003 110.72C222.903 110.72 224.483 112.82 224.483 115.94C224.483 116.4 224.443 116.84 224.383 117.12H217.243C217.423 119.22 218.743 120.46 220.643 120.46C221.623 120.46 222.443 120.16 223.263 119.64L224.063 121.12C223.043 121.8 221.783 122.28 220.343 122.28ZM217.203 115.52H222.483C222.483 113.62 221.643 112.54 220.043 112.54C218.663 112.54 217.443 113.6 217.203 115.52Z" fill="#2366F9"/>
<path d="M0 12.633H22.8732V0L47 23.9972L22.862 48V35.367L0 12.633Z" fill="#2366F8"/>
<rect x="463.5" y="23.5" width="396" height="119" rx="7.5" fill="white" stroke="#2366F9"/>
<path d="M516.42 75.28H518.38C518.34 84.52 518.4 91 508.06 93.64C507.84 93.16 507.36 92.46 506.96 92.04C516.78 89.68 516.36 84.1 516.42 75.28ZM507.06 84.2H524.98V85.96H507.06V84.2ZM516.76 89L517.74 87.64C520.5 88.86 523.38 90.58 525 91.96L523.76 93.42C522.18 91.98 519.44 90.24 516.76 89ZM509.62 77.24L510.66 75.9C512.24 76.42 514.3 77.38 515.32 78.18L514.22 79.72C513.26 78.9 511.24 77.84 509.62 77.24ZM507.82 80.96L508.92 79.62C510.54 80.2 512.58 81.22 513.6 82.06L512.4 83.54C511.44 82.7 509.44 81.6 507.82 80.96ZM537.98 76.14H543.18V77.86H539.66V93.62H537.98V76.14ZM542.8 76.14H543.14L543.42 76.06L544.74 76.88C544.04 78.78 543.16 81.08 542.34 82.88C544.06 84.72 544.44 86.32 544.44 87.66C544.44 88.96 544.16 89.92 543.46 90.4C543.12 90.66 542.68 90.78 542.18 90.84C541.7 90.9 541.1 90.9 540.54 90.88C540.5 90.4 540.34 89.62 540.06 89.1C540.58 89.16 541.06 89.16 541.42 89.16C541.72 89.14 541.98 89.08 542.2 88.94C542.58 88.72 542.7 88.14 542.7 87.46C542.7 86.28 542.22 84.82 540.54 83.1C541.4 81.08 542.32 78.24 542.8 76.74V76.14ZM527.08 77.42H536.62V79.12H527.08V77.42ZM526.54 82.82H537.08V84.54H526.54V82.82ZM528.22 79.6L529.84 79.18C530.42 80.2 530.92 81.52 531.1 82.4L529.4 82.88C529.24 81.98 528.74 80.62 528.22 79.6ZM533.96 79.12L535.82 79.54C535.26 80.92 534.62 82.5 534.08 83.52L532.48 83.12C533.02 82.04 533.64 80.32 533.96 79.12ZM528.58 91.02H535.26V92.68H528.58V91.02ZM527.58 86.2H536.22V93.48H534.34V87.9H529.36V93.6H527.58V86.2ZM530.34 75.48L532.04 75C532.48 75.86 532.94 77 533.14 77.7L531.32 78.26C531.16 77.54 530.72 76.36 530.34 75.48ZM551.7 78.96H564.04V80.8H551.7V78.96ZM546.6 76.32L548.22 75.5C549.2 76.66 550.3 78.24 550.74 79.32L549 80.26C548.6 79.18 547.56 77.54 546.6 76.32ZM556.7 75.18H558.66C558.5 81.66 558.16 87.2 552.7 90.04C552.46 89.58 551.88 88.9 551.44 88.56C556.48 86.02 556.58 81.1 556.7 75.18ZM550.56 82.5V90.02H548.66V84.32H546.06V82.5H550.56ZM549.6 89.12C550.28 89.12 550.76 89.74 551.9 90.44C553.24 91.26 554.98 91.4 557.28 91.4C559.54 91.4 562.62 91.22 564.56 90.96C564.34 91.48 564.04 92.44 564 92.98C562.64 93.08 559.14 93.2 557.2 93.2C554.66 93.2 552.98 92.96 551.54 92.08C550.66 91.56 550 90.86 549.56 90.86C548.92 90.86 547.98 92.16 547.08 93.5L545.78 91.68C547.16 90.16 548.58 89.12 549.6 89.12ZM556.44 82.98L557.96 82C560.22 84.08 562.82 86.9 564.1 88.74L562.5 89.94C561.28 88.06 558.64 85.1 556.44 82.98ZM573.62 75.18H575.76C575.66 78.98 575.52 88.92 567.08 93.64C566.74 93.14 566.12 92.54 565.52 92.12C573.78 87.84 573.54 78.4 573.62 75.18ZM575.56 77.62C575.72 79.14 576.46 88.46 584.2 91.92C583.64 92.36 583.1 93 582.82 93.54C574.78 89.74 574.02 79.68 573.74 77.82L575.56 77.62ZM595.08 90.22L595.98 88.84C598.62 89.7 601.44 91 603.08 92.1L601.92 93.58C600.34 92.44 597.7 91.12 595.08 90.22ZM592.8 75.52L594.7 74.94C595.24 75.78 595.84 76.9 596.08 77.64L594.1 78.28C593.88 77.56 593.32 76.38 592.8 75.52ZM586.08 77.24H602.76V81.52H600.78V79H587.96V81.52H586.08V77.24ZM594.28 79.94H596.26C596.02 87.22 595.44 91.66 587.02 93.64C586.84 93.14 586.36 92.42 585.96 92C593.84 90.32 594.08 86.6 594.28 79.94ZM585.78 86.74H603.12V88.34H585.78V86.74ZM589.12 80.98L590.24 79.76C591.3 80.32 592.6 81.2 593.22 81.9L592.04 83.26C591.46 82.58 590.18 81.6 589.12 80.98ZM587.1 84.04L588.2 82.78C589.3 83.32 590.64 84.2 591.3 84.88L590.16 86.3C589.54 85.6 588.2 84.64 587.1 84.04ZM608.5 75.28H610.3V85.52H608.5V75.28ZM609.2 78.82H614.32V80.52H609.2V78.82ZM606.14 90.46H613.18V92.18H606.14V90.46ZM605.56 84.1H613.98V93.22H612.22V85.8H607.24V93.32H605.56V84.1ZM619.3 76.6L620.58 75.88C621.34 76.76 622.24 77.96 622.62 78.74L621.26 79.58C620.88 78.78 620.02 77.52 619.3 76.6ZM614.18 81.46L622.96 80.2L623.22 81.82L614.44 83.08L614.18 81.46ZM621.46 82.64L622.88 83.44C621.54 87.46 618.72 91.4 615.34 93.3C615.04 92.88 614.46 92.3 613.98 91.98C617.42 90.28 620.2 86.52 621.46 82.64ZM616.54 75.26H618.3C618.46 84.04 619.66 91.4 621.4 91.52C621.8 91.54 622.04 90.52 622.18 88.66C622.5 89.02 623.22 89.5 623.54 89.68C623.08 92.88 622.24 93.72 621.42 93.7C617.96 93.54 616.88 85.76 616.54 75.26ZM624.88 88.48C624.78 88.1 624.48 87.2 624.26 86.68C624.76 86.58 625.22 86.12 625.9 85.4C626.62 84.68 628.8 81.96 630.26 79.24L631.9 80.3C630.24 82.96 628.16 85.6 626.16 87.48V87.54C626.16 87.54 624.88 88.12 624.88 88.48ZM624.88 88.48L624.76 86.92L625.66 86.3L631.24 85.32C631.16 85.84 631.16 86.58 631.18 86.98C626.12 87.98 625.36 88.2 624.88 88.48ZM624.74 83.64C624.64 83.26 624.34 82.34 624.12 81.86C624.52 81.76 624.88 81.32 625.3 80.64C625.78 80 627.24 77.46 628.02 75.08L629.82 75.92C628.76 78.34 627.26 80.88 625.82 82.64V82.7C625.82 82.7 624.74 83.28 624.74 83.64ZM624.74 83.64L624.7 82.24L625.56 81.68L629.46 81.32C629.34 81.8 629.28 82.5 629.26 82.88C625.76 83.3 625.12 83.46 624.74 83.64ZM624.3 90.7C626 90.36 628.56 89.74 631.06 89.14L631.28 90.8C628.98 91.44 626.52 92.08 624.66 92.58L624.3 90.7ZM632.06 76.16H640.14V77.88H632.06V76.16ZM639.64 76.16H640.02L640.36 76.08L641.72 76.78C639.86 80.7 635.88 83.36 631.86 84.82C631.62 84.34 631.1 83.6 630.74 83.22C634.4 82.06 638.18 79.54 639.64 76.48V76.16ZM631.02 91.42H642.88V93.18H631.02V91.42ZM636.04 86.46H637.92V92.02H636.04V86.46ZM632.22 85.32H641.9V87.06H632.22V85.32ZM636.14 81.8L637.16 80.48C639.08 81.22 641.72 82.46 643.04 83.3L641.94 84.84C640.68 83.96 638.08 82.66 636.14 81.8ZM649.92 84.44H651.56C651.56 84.44 651.54 84.94 651.52 85.16C651.24 90.22 650.96 92.14 650.34 92.8C649.96 93.26 649.56 93.4 648.94 93.46C648.42 93.52 647.48 93.5 646.52 93.46C646.5 92.98 646.3 92.34 646.04 91.9C646.98 92 647.86 92.02 648.24 92.02C648.56 92.02 648.76 91.98 648.94 91.78C649.38 91.32 649.66 89.5 649.92 84.72V84.44ZM643.72 88.88C645.08 88.6 647.02 88.14 648.98 87.66L649.14 89.08C647.36 89.54 645.56 90.02 644.06 90.4L643.72 88.88ZM644.32 75.96H649.58V77.56H644.32V75.96ZM649.08 75.96H650.68C650.5 78.84 650.2 82.64 649.94 84.82L648.34 84.86C648.64 82.58 648.96 78.76 649.08 75.96ZM645.14 78.98L646.74 79.08C646.62 81.3 646.38 84.22 646.14 85.96H644.54C644.8 84.16 645.04 81.18 645.14 78.98ZM645.12 84.46H650.14V85.96H645.12V84.46ZM657.06 75.72C658.26 77.62 660.68 79.94 662.76 81.16C662.44 81.62 662.04 82.46 661.86 82.98C659.62 81.42 657.1 78.8 655.68 76.62L657.06 75.72ZM656.4 74.94L658.04 75.5C656.58 78.56 654.18 81.3 651.66 83.04C651.46 82.66 650.9 81.88 650.56 81.52C652.94 80.04 655.16 77.64 656.4 74.94ZM653.82 81.28H659.88V82.9H653.82V81.28ZM652.48 84.88L653.94 84.52C654.48 86 655.02 87.96 655.2 89.24L653.66 89.66C653.52 88.38 653 86.4 652.48 84.88ZM655.98 84.36L657.44 84.14C657.82 85.66 658.18 87.6 658.3 88.88L656.76 89.14C656.68 87.84 656.32 85.86 655.98 84.36ZM660.42 84.36L662.14 84.74C661.26 87.1 660.06 90 659.08 91.8L657.7 91.4C658.64 89.56 659.82 86.52 660.42 84.36ZM651.9 91.12H662.2V92.76H651.9V91.12Z" fill="#2366F9"/>
<path d="M440 12.633H462.873V0L487 23.9972L462.862 48V35.367L440 12.633Z" fill="#2366F8"/>
<rect x="903.5" y="23.5" width="396" height="119" rx="7.5" fill="white" stroke="#2366F9"/>
<path d="M952.22 77.76V81.08H959.8V77.76H952.22ZM950.38 75.96H961.72V82.88H950.38V75.96ZM947.54 84.82H954.9V93.54H953V86.62H949.34V93.68H947.54V84.82ZM956.86 84.82H964.56V93.58H962.66V86.62H958.68V93.68H956.86V84.82ZM948.34 90.82H953.78V92.64H948.34V90.82ZM957.76 90.82H963.56V92.64H957.76V90.82ZM973.56 88H984.78V89.62H973.56V88ZM980.1 85.32H981.88V93.68H980.1V85.32ZM978.2 75.08L980.32 75.46C979.8 76.42 979.18 77.44 978.74 78.08L977.22 77.68C977.58 76.92 978 75.84 978.2 75.08ZM978.46 77.92H980.08V81.22C980.08 83.6 979.44 86.36 975.44 88.06C975.16 87.74 974.58 87.24 974.22 87C977.94 85.46 978.46 83.1 978.46 81.18V77.92ZM968.28 80.52H973.92V82.14H968.28V80.52ZM970.78 75.14H972.44V81.5H970.78V75.14ZM968.38 84.8H972.98V93.7H971.28V86.42H968.38V84.8ZM967.48 75.58H969.12V83.16C969.12 86.34 968.92 90.66 967.78 93.74C967.4 93.54 966.66 93.28 966.18 93.14C967.32 90.26 967.48 86.04 967.48 83.16V75.58ZM976.04 81.62V83.42H982.5V81.62H976.04ZM976.04 78.48V80.24H982.5V78.48H976.04ZM974.34 77.02H984.24V84.86H974.34V77.02ZM994.1 75.14H996.18V91.6H994.1V75.14ZM1001.14 85.14H1003.22V93.66H1001.14V85.14ZM988.08 76.9H990.06V82.14H1000.34V76.88H1002.42V83.96H988.08V76.9ZM987.12 85.14H989.22V90.66H1002.12V92.56H987.12V85.14ZM1013.04 80.64H1014.82C1014.46 83.94 1013.88 88.22 1013.46 90.72H1011.62C1012.14 88.14 1012.74 83.84 1013.04 80.64ZM1016 82.78L1017.02 82.12C1017.78 82.72 1018.7 83.6 1019.14 84.2L1018.08 84.94C1017.68 84.32 1016.78 83.42 1016 82.78ZM1015.48 86.98L1016.54 86.3C1017.36 86.94 1018.38 87.9 1018.86 88.54L1017.76 89.32C1017.3 88.66 1016.3 87.66 1015.48 86.98ZM1013.28 77.28H1023.62V79H1013.28V77.28ZM1013.82 80.64H1021.58V82.28H1013.82V80.64ZM1010.52 84.7H1024.14V86.42H1010.52V84.7ZM1012.58 89.1H1023.6V90.72H1012.58V89.1ZM1013.52 75.12L1015.36 75.58C1014.52 78.08 1013.2 80.62 1011.86 82.24C1011.48 81.94 1010.68 81.44 1010.22 81.2C1011.6 79.72 1012.82 77.4 1013.52 75.12ZM1021.04 80.64H1022.8C1022.8 80.64 1022.78 81.24 1022.76 81.5C1022.46 89.16 1022.14 91.82 1021.46 92.68C1021.04 93.24 1020.58 93.4 1019.94 93.48C1019.36 93.56 1018.38 93.54 1017.42 93.48C1017.38 93.02 1017.2 92.34 1016.92 91.9C1017.9 91.98 1018.76 92 1019.16 92C1019.5 92 1019.7 91.94 1019.9 91.7C1020.44 91.08 1020.78 88.36 1021.04 81.02V80.64ZM1006.66 76.7L1007.72 75.42C1008.9 75.94 1010.46 76.82 1011.24 77.46L1010.14 78.9C1009.38 78.24 1007.86 77.3 1006.66 76.7ZM1005.56 82.46L1006.6 81.18C1007.74 81.7 1009.2 82.54 1009.92 83.18L1008.84 84.62C1008.16 83.96 1006.7 83.04 1005.56 82.46ZM1006.14 92.32C1006.96 90.76 1008.08 88.16 1008.92 85.84L1010.36 86.88C1009.62 89 1008.66 91.44 1007.78 93.36L1006.14 92.32ZM1035.08 90.22L1035.98 88.84C1038.62 89.7 1041.44 91 1043.08 92.1L1041.92 93.58C1040.34 92.44 1037.7 91.12 1035.08 90.22ZM1032.8 75.52L1034.7 74.94C1035.24 75.78 1035.84 76.9 1036.08 77.64L1034.1 78.28C1033.88 77.56 1033.32 76.38 1032.8 75.52ZM1026.08 77.24H1042.76V81.52H1040.78V79H1027.96V81.52H1026.08V77.24ZM1034.28 79.94H1036.26C1036.02 87.22 1035.44 91.66 1027.02 93.64C1026.84 93.14 1026.36 92.42 1025.96 92C1033.84 90.32 1034.08 86.6 1034.28 79.94ZM1025.78 86.74H1043.12V88.34H1025.78V86.74ZM1029.12 80.98L1030.24 79.76C1031.3 80.32 1032.6 81.2 1033.22 81.9L1032.04 83.26C1031.46 82.58 1030.18 81.6 1029.12 80.98ZM1027.1 84.04L1028.2 82.78C1029.3 83.32 1030.64 84.2 1031.3 84.88L1030.16 86.3C1029.54 85.6 1028.2 84.64 1027.1 84.04ZM1048.5 75.28H1050.3V85.52H1048.5V75.28ZM1049.2 78.82H1054.32V80.52H1049.2V78.82ZM1046.14 90.46H1053.18V92.18H1046.14V90.46ZM1045.56 84.1H1053.98V93.22H1052.22V85.8H1047.24V93.32H1045.56V84.1ZM1059.3 76.6L1060.58 75.88C1061.34 76.76 1062.24 77.96 1062.62 78.74L1061.26 79.58C1060.88 78.78 1060.02 77.52 1059.3 76.6ZM1054.18 81.46L1062.96 80.2L1063.22 81.82L1054.44 83.08L1054.18 81.46ZM1061.46 82.64L1062.88 83.44C1061.54 87.46 1058.72 91.4 1055.34 93.3C1055.04 92.88 1054.46 92.3 1053.98 91.98C1057.42 90.28 1060.2 86.52 1061.46 82.64ZM1056.54 75.26H1058.3C1058.46 84.04 1059.66 91.4 1061.4 91.52C1061.8 91.54 1062.04 90.52 1062.18 88.66C1062.5 89.02 1063.22 89.5 1063.54 89.68C1063.08 92.88 1062.24 93.72 1061.42 93.7C1057.96 93.54 1056.88 85.76 1056.54 75.26ZM1069.62 83.28V84.42H1078.44V83.28H1069.62ZM1069.62 80.96V82.08H1078.44V80.96H1069.62ZM1067.72 79.66H1080.42V85.72H1067.72V79.66ZM1068.74 75.12L1070.46 75.64C1069.36 77.9 1067.5 80.08 1065.66 81.48C1065.42 81.12 1064.82 80.36 1064.46 80.02C1066.16 78.88 1067.84 77.06 1068.74 75.12ZM1068.76 76.96H1081.8V78.52H1067.98L1068.76 76.96ZM1070.32 85.22L1071.94 85.8C1070.64 87.66 1068.54 89.4 1066.68 90.48C1066.38 90.16 1065.74 89.56 1065.34 89.26C1067.26 88.32 1069.2 86.82 1070.32 85.22ZM1069.66 86.8H1078.86V88.22H1068.4L1069.66 86.8ZM1078.34 86.8H1078.72L1079.02 86.72L1080.2 87.48C1077.38 91.5 1071.02 93.12 1064.88 93.7C1064.78 93.22 1064.46 92.46 1064.18 92.02C1070.02 91.64 1076.08 90.2 1078.34 87.04V86.8ZM1069.76 87.68C1072.12 90.32 1077.12 91.6 1082.94 91.88C1082.56 92.28 1082.14 93.04 1081.9 93.52C1076.04 93.08 1071.08 91.54 1068.38 88.22L1069.76 87.68ZM1088.12 76.6H1098.72V78.12H1088.12V76.6ZM1084.18 80.9H1102.36V82.54H1084.18V80.9ZM1087.28 76.6H1089.14V80.14C1089.14 82.36 1088.62 85.14 1085.96 86.84C1085.68 86.48 1084.98 85.78 1084.58 85.52C1086.98 84 1087.28 81.9 1087.28 80.1V76.6ZM1097.8 76.6H1099.68V84.44C1099.68 85.3 1099.5 85.76 1098.86 86.02C1098.24 86.28 1097.3 86.3 1095.92 86.3C1095.86 85.82 1095.6 85.14 1095.36 84.7C1096.24 84.72 1097.16 84.72 1097.44 84.72C1097.7 84.72 1097.8 84.64 1097.8 84.42V76.6ZM1092.3 74.94L1094.36 75.32C1093.96 76.14 1093.6 76.9 1093.3 77.44L1091.48 77.08C1091.76 76.46 1092.14 75.54 1092.3 74.94ZM1091.06 79.34L1091.96 78.26C1093.06 78.68 1094.42 79.42 1095.12 80.02L1094.18 81.22C1093.52 80.62 1092.16 79.82 1091.06 79.34ZM1090.86 83.74L1091.78 82.66C1092.9 83.14 1094.36 83.94 1095.08 84.52L1094.14 85.74C1093.44 85.12 1092 84.28 1090.86 83.74ZM1084.06 91.48H1102.32V93.14H1084.06V91.48ZM1086.28 86.74H1100.16V92.3H1098.32V88.22H1096.04V92.3H1094.28V88.22H1092.02V92.3H1090.3V88.22H1088.04V92.3H1086.28V86.74Z" fill="#2366F9"/>
<path d="M880 12.633H902.873V0L927 23.9972L902.862 48V35.367L880 12.633Z" fill="#2366F8"/>
<rect x="23.5" y="186.5" width="396" height="119" rx="7.5" fill="white" stroke="#2366F9"/>
<path d="M66 255L70.86 240.28H73.56L78.42 255H75.96L73.6 247.02C73.1 245.42 72.66 243.76 72.2 242.12H72.12C71.68 243.78 71.24 245.42 70.74 247.02L68.36 255H66ZM68.74 250.82V249H75.62V250.82H68.74ZM79.9614 255V240.28H82.3014V255H79.9614ZM95.5255 241.14H106.605V242.9H95.5255V241.14ZM95.9055 245.64H104.605V247.36H95.9055V245.64ZM100.065 238.12H101.925V246.6H100.065V238.12ZM98.1255 246.96C99.6055 250.96 102.745 253.9 107.365 255.08C106.945 255.46 106.405 256.22 106.145 256.7C101.345 255.3 98.2055 252.08 96.4255 247.46L98.1255 246.96ZM104.425 245.64H104.785L105.125 245.58L106.325 246.08C104.665 251.9 100.465 255.16 95.3855 256.66C95.1855 256.16 94.7255 255.36 94.3655 254.96C99.0655 253.8 103.085 250.76 104.425 245.96V245.64ZM88.5455 248.52C90.2655 248.14 92.7855 247.48 95.1855 246.82L95.4255 248.54C93.2255 249.2 90.8855 249.84 89.0655 250.34L88.5455 248.52ZM88.8055 242.06H95.2455V243.82H88.8055V242.06ZM91.2655 238.14H93.1255V254.52C93.1255 255.5 92.9255 255.98 92.3255 256.28C91.7255 256.56 90.8455 256.62 89.4455 256.62C89.3855 256.14 89.1255 255.38 88.8855 254.88C89.7655 254.9 90.6255 254.9 90.8855 254.9C91.1655 254.9 91.2655 254.8 91.2655 254.5V238.14ZM118.985 244.34C120.745 247.46 124.025 250.88 126.885 252.68C126.385 253.08 125.705 253.82 125.365 254.36C122.525 252.28 119.345 248.5 117.425 244.98L118.985 244.34ZM116.285 244.4L117.985 245.02C116.105 248.94 112.905 252.56 109.525 254.52C109.185 254.02 108.545 253.26 108.085 252.86C111.385 251.2 114.625 247.8 116.285 244.4ZM108.785 243.12H126.125V245H108.785V243.12ZM116.505 238.16H118.585V256.7H116.505V238.16ZM119.625 239.56L121.005 238.4C122.165 239.24 123.765 240.46 124.545 241.26L123.085 242.56C122.345 241.74 120.805 240.46 119.625 239.56ZM136.145 254.36H143.165V255.84H136.145V254.36ZM137.185 243.48H143.625V244.9H137.185V243.48ZM134.885 250.58H144.445V256.68H142.585V252.04H136.685V256.68H134.885V250.58ZM137.125 244.74C139.125 246.76 143.085 248.6 146.685 249.4C146.285 249.78 145.785 250.5 145.505 250.94C141.945 250 137.945 247.92 135.605 245.54L137.125 244.74ZM143.245 243.48H143.605L143.905 243.38L145.105 244.12C142.905 247.74 138.145 250.06 133.785 251.16C133.605 250.72 133.185 250 132.845 249.64C136.925 248.78 141.505 246.6 143.245 243.74V243.48ZM128.205 255.18C129.305 254.04 130.925 252.12 132.225 250.36L133.345 251.74C132.205 253.34 130.825 255.18 129.565 256.64L128.205 255.18ZM129.145 243.6L130.225 242.32C131.305 242.86 132.865 243.72 133.665 244.3L132.525 245.74C131.785 245.14 130.245 244.2 129.145 243.6ZM127.825 247.52L128.925 246.22C130.045 246.72 131.605 247.58 132.365 248.2L131.225 249.64C130.485 249.02 128.985 248.1 127.825 247.52ZM137.285 242.04L139.125 242.4C137.905 244.26 136.285 246.2 134.105 247.84C133.805 247.46 133.205 246.94 132.785 246.7C134.845 245.34 136.405 243.5 137.285 242.04ZM132.645 238.14H134.505V242.6H132.645V238.14ZM139.565 238.14H141.425V242.6H139.565V238.14ZM128.265 239.4H145.945V241.08H128.265V239.4ZM159.245 238.12H161.025V252.14H159.245V238.12ZM153.125 246.3L163.725 241.8L164.405 243.42L153.825 247.96L153.125 246.3ZM155.205 240.02H157.005V253.22C157.005 254.36 157.225 254.56 158.505 254.56C159.145 254.56 162.205 254.56 162.925 254.56C164.065 254.56 164.265 254.06 164.425 251.88C164.845 252.16 165.585 252.46 166.105 252.56C165.825 255.36 165.245 256.26 163.045 256.26C162.465 256.26 158.965 256.26 158.405 256.26C155.905 256.26 155.205 255.64 155.205 253.2V240.02ZM163.365 242.04H163.205L163.585 241.74L163.925 241.48L165.245 241.96L165.165 242.3C165.165 246.08 165.125 248.82 165.005 249.62C164.905 250.48 164.545 250.9 163.945 251.1C163.385 251.3 162.565 251.3 161.965 251.3C161.905 250.82 161.765 250.1 161.545 249.68C161.965 249.72 162.525 249.72 162.725 249.72C163.005 249.72 163.165 249.64 163.245 249.22C163.345 248.76 163.365 246.2 163.365 242.04ZM147.465 242.86H153.925V244.66H147.465V242.86ZM149.945 238.38H151.705V251.48H149.945V238.38ZM147.245 251.78C148.885 251.18 151.405 250.14 153.805 249.1L154.225 250.78C152.085 251.82 149.805 252.86 148.005 253.66L147.245 251.78ZM169.585 240.6H185.225V242.38H169.585V240.6ZM168.605 240.6H170.525V246.02C170.525 249.14 170.265 253.82 168.605 256.86C168.265 256.52 167.385 255.96 166.945 255.78C168.465 252.94 168.605 248.88 168.605 246.02V240.6ZM175.525 238.4L177.405 237.94C177.885 238.86 178.425 240.04 178.665 240.8L176.725 241.36C176.485 240.58 175.985 239.32 175.525 238.4ZM171.525 245.22L173.165 244.56C174.045 246.74 175.005 249.52 175.445 251.38L173.665 252.12C173.285 250.24 172.345 247.38 171.525 245.22ZM175.705 244.04L177.425 243.58C178.125 245.76 178.865 248.54 179.165 250.4L177.345 250.92C177.085 249.06 176.345 246.22 175.705 244.04ZM182.465 243.48L184.465 244.18C183.345 247.98 181.545 252.2 179.305 255.48C179.045 255.14 178.465 254.62 178.065 254.34C180.105 251.24 181.685 247.02 182.465 243.48ZM170.525 254.02H185.465V255.82H170.525V254.02ZM189.945 239.5H202.585V241.3H189.945V239.5ZM189.945 244.14H202.585V245.92H189.945V244.14ZM189.865 248.9H202.645V250.68H189.865V248.9ZM188.865 239.5H190.725V246.74C190.725 249.84 190.365 254.14 187.945 256.8C187.645 256.44 186.885 255.8 186.465 255.56C188.665 253.1 188.865 249.54 188.865 246.72V239.5ZM201.885 239.5H203.765V254.32C203.765 255.42 203.505 255.96 202.765 256.26C202.025 256.56 200.845 256.6 198.985 256.58C198.905 256.08 198.605 255.26 198.345 254.76C199.645 254.82 200.985 254.8 201.365 254.8C201.745 254.78 201.885 254.66 201.885 254.3V239.5ZM195.085 240.2H197.005V256.48H195.085V240.2Z" fill="#2366F9"/>
<path d="M0 175.633H22.8732V163L47 186.997L22.862 211V198.367L0 175.633Z" fill="#2366F8"/>
<rect x="463.5" y="186.5" width="396" height="119" rx="7.5" fill="white" stroke="#2366F9"/>
<path d="M509.26 239.6H522.9V241.54H509.26V239.6ZM507.04 245.24H524.96V247.18H507.04V245.24ZM518.2 249.58L519.94 248.7C521.62 250.92 523.6 253.82 524.6 255.7L522.76 256.8C521.82 254.88 519.82 251.84 518.2 249.58ZM508.76 255.98C508.64 255.54 508.28 254.46 508.02 253.86C508.54 253.74 508.98 253.24 509.62 252.44C510.28 251.66 512.34 248.66 513.6 245.76L515.94 246.52C514.3 249.64 512.14 252.7 510.16 254.8V254.86C510.16 254.86 508.76 255.56 508.76 255.98ZM508.76 255.98L508.72 254.36L510.08 253.6L521.86 252.78C521.92 253.34 522.12 254.18 522.26 254.62C511.02 255.54 509.72 255.6 508.76 255.98ZM528.36 238.84H532.94V240.6H528.36V238.84ZM528.36 243.46H533V245.22H528.36V243.46ZM536.16 245.76H543.32V247.5H536.16V245.76ZM528.32 248.2H532.94V249.98H528.32V248.2ZM527.6 238.84H529.32V246.08C529.32 249.24 529.12 253.76 527.72 256.72C527.38 256.44 526.62 256 526.18 255.84C527.5 253.06 527.6 249.02 527.6 246.08V238.84ZM531.88 238.84H533.64V254.54C533.64 255.48 533.46 256.04 532.9 256.34C532.32 256.66 531.5 256.7 530.16 256.68C530.1 256.22 529.88 255.36 529.64 254.88C530.48 254.9 531.28 254.9 531.52 254.88C531.78 254.88 531.88 254.8 531.88 254.52V238.84ZM542.12 238.88H543.94V242.76C543.94 243.64 543.76 244.12 543.04 244.38C542.34 244.64 541.26 244.64 539.74 244.64C539.66 244.12 539.4 243.48 539.16 243.04C540.28 243.08 541.4 243.08 541.72 243.06C542.04 243.04 542.12 242.98 542.12 242.74V238.88ZM542.8 245.76H543.12L543.42 245.7L544.54 246.08C543.58 251.24 541.16 254.72 537.98 256.62C537.76 256.2 537.26 255.54 536.88 255.22C539.72 253.72 542.02 250.32 542.8 246.1V245.76ZM538.68 246.88C539.78 250.56 542.04 253.8 545.12 255.26C544.72 255.6 544.2 256.26 543.92 256.7C540.68 254.96 538.44 251.46 537.18 247.28L538.68 246.88ZM535.12 238.88H542.6V240.64H536.9V256.68H535.12V238.88ZM547.64 249.28H561.5V250.92H547.64V249.28ZM560.88 249.28H562.76C562.76 249.28 562.72 249.82 562.66 250.08C562.22 253.62 561.76 255.18 561.02 255.82C560.54 256.28 560 256.42 559.18 256.46C558.52 256.48 557.28 256.48 556.04 256.42C556 255.92 555.76 255.22 555.44 254.76C556.72 254.88 558.08 254.9 558.62 254.9C559.04 254.9 559.3 254.88 559.54 254.7C560.06 254.28 560.5 252.76 560.86 249.54L560.88 249.28ZM553.86 247.42L555.82 247.58C554.96 252.92 552.34 255.38 547.36 256.66C547.16 256.26 546.62 255.44 546.28 255.08C550.98 254.16 553.3 252.04 553.86 247.42ZM551.56 240.12H561.4V241.72H551.56V240.12ZM560.94 240.12H561.3L561.62 240.04L562.76 240.8C559.84 245.2 553.18 247.2 546.82 247.94C546.7 247.48 546.38 246.72 546.08 246.3C552.16 245.74 558.58 243.9 560.94 240.36V240.12ZM551.7 241.86C553.92 244.52 558.72 245.74 564.5 246.04C564.12 246.46 563.68 247.2 563.44 247.72C557.56 247.26 552.8 245.76 550.14 242.5L551.7 241.86ZM552.64 238.1L554.58 238.48C553.2 240.76 551.1 242.92 547.98 244.6C547.76 244.16 547.22 243.46 546.84 243.16C549.68 241.78 551.62 239.84 552.64 238.1ZM572.74 242.88H584.06V244.48H572.74V242.88ZM576.74 248.18H579.24V249.78H576.74V248.18ZM573.58 239.54H578.64V241.12H573.58V239.54ZM579.22 238.16H580.86C580.78 246.88 581.6 255.04 582.68 255.04C582.9 255.04 583.06 253.9 583.08 251.68C583.42 252.06 583.92 252.42 584.34 252.62C584.14 255.78 583.68 256.7 582.38 256.7C579.74 256.7 579.34 247.12 579.22 238.16ZM581.08 239.22L582.36 238.66C583.04 239.48 583.76 240.6 584.04 241.38L582.68 242C582.42 241.24 581.72 240.06 581.08 239.22ZM576.12 245.16H577.6V254.42H576.12V245.16ZM573.42 246.34H574.86V254.62H573.42V246.34ZM572.34 254.4C574.16 254.08 576.96 253.56 579.66 253.04L579.8 254.54C577.3 255.1 574.68 255.64 572.72 256.04L572.34 254.4ZM568.48 242.2H569.98V247.64C569.98 250.5 569.62 254.26 566.52 256.52C566.3 256.2 565.84 255.7 565.48 255.4C568.24 253.52 568.48 250 568.48 247.64V242.2ZM569.28 252.34L570.56 251.64C571.24 252.68 572.06 254.08 572.42 254.94L571.08 255.76C570.76 254.86 569.96 253.42 569.28 252.34ZM566.2 239.22H572.22V251.2H570.86V240.92H567.54V251.28H566.2V239.22ZM586.3 245.3H592.66V246.88H588.06V256.66H586.3V245.3ZM591.76 245.3H593.64V254.66C593.64 255.54 593.46 256.04 592.86 256.32C592.24 256.62 591.36 256.64 590.12 256.64C590.02 256.14 589.74 255.4 589.5 254.94C590.34 254.98 591.16 254.96 591.44 254.94C591.7 254.94 591.76 254.88 591.76 254.62V245.3ZM587.12 248.3H592.8V249.74H587.12V248.3ZM587.12 251.28H592.8V252.72H587.12V251.28ZM595.38 238.18H597.24V244.54C597.24 245.2 597.38 245.32 598.22 245.32C598.6 245.32 600.48 245.32 600.98 245.32C601.7 245.32 601.84 245 601.92 243.1C602.3 243.42 603.06 243.7 603.58 243.82C603.38 246.32 602.84 247 601.14 247C600.68 247 598.44 247 598 247C595.9 247 595.38 246.44 595.38 244.56V238.18ZM601.46 239.52L602.68 240.9C600.94 241.74 598.58 242.5 596.56 243.06C596.46 242.68 596.22 242.12 596 241.76C597.92 241.14 600.12 240.26 601.46 239.52ZM595.38 247.5H597.26V254.08C597.26 254.76 597.42 254.86 598.28 254.86C598.68 254.86 600.58 254.86 601.1 254.86C601.86 254.86 602 254.5 602.1 252.32C602.5 252.62 603.26 252.92 603.78 253.04C603.56 255.78 603.04 256.54 601.26 256.54C600.8 256.54 598.5 256.54 598.06 256.54C595.94 256.54 595.38 255.98 595.38 254.08V247.5ZM601.66 248.48L602.9 249.88C601.16 250.86 598.66 251.68 596.54 252.26C596.46 251.9 596.18 251.3 595.98 250.92C598 250.3 600.3 249.36 601.66 248.48ZM590.56 239.94L592.14 239.34C593.14 240.68 594.2 242.48 594.58 243.72L592.9 244.42C592.52 243.22 591.52 241.34 590.56 239.94ZM586.1 244.1C586 243.7 585.68 242.8 585.46 242.3C585.76 242.24 586.08 241.94 586.4 241.52C586.74 241.12 587.76 239.6 588.36 238.08L590.36 238.64C589.5 240.28 588.3 242 587.24 243.1V243.14C587.24 243.14 586.1 243.72 586.1 244.1ZM586.1 244.1L586.04 242.8L586.94 242.26L593.32 241.86C593.22 242.32 593.14 242.98 593.14 243.34C587.36 243.78 586.58 243.9 586.1 244.1ZM612.9 238.14H614.98V254.6H612.9V238.14ZM619.94 248.14H622.02V256.66H619.94V248.14ZM606.88 239.9H608.86V245.14H619.14V239.88H621.22V246.96H606.88V239.9ZM605.92 248.14H608.02V253.66H620.92V255.56H605.92V248.14ZM631.84 243.64H633.62C633.26 246.94 632.68 251.22 632.26 253.72H630.42C630.94 251.14 631.54 246.84 631.84 243.64ZM634.8 245.78L635.82 245.12C636.58 245.72 637.5 246.6 637.94 247.2L636.88 247.94C636.48 247.32 635.58 246.42 634.8 245.78ZM634.28 249.98L635.34 249.3C636.16 249.94 637.18 250.9 637.66 251.54L636.56 252.32C636.1 251.66 635.1 250.66 634.28 249.98ZM632.08 240.28H642.42V242H632.08V240.28ZM632.62 243.64H640.38V245.28H632.62V243.64ZM629.32 247.7H642.94V249.42H629.32V247.7ZM631.38 252.1H642.4V253.72H631.38V252.1ZM632.32 238.12L634.16 238.58C633.32 241.08 632 243.62 630.66 245.24C630.28 244.94 629.48 244.44 629.02 244.2C630.4 242.72 631.62 240.4 632.32 238.12ZM639.84 243.64H641.6C641.6 243.64 641.58 244.24 641.56 244.5C641.26 252.16 640.94 254.82 640.26 255.68C639.84 256.24 639.38 256.4 638.74 256.48C638.16 256.56 637.18 256.54 636.22 256.48C636.18 256.02 636 255.34 635.72 254.9C636.7 254.98 637.56 255 637.96 255C638.3 255 638.5 254.94 638.7 254.7C639.24 254.08 639.58 251.36 639.84 244.02V243.64ZM625.46 239.7L626.52 238.42C627.7 238.94 629.26 239.82 630.04 240.46L628.94 241.9C628.18 241.24 626.66 240.3 625.46 239.7ZM624.36 245.46L625.4 244.18C626.54 244.7 628 245.54 628.72 246.18L627.64 247.62C626.96 246.96 625.5 246.04 624.36 245.46ZM624.94 255.32C625.76 253.76 626.88 251.16 627.72 248.84L629.16 249.88C628.42 252 627.46 254.44 626.58 256.36L624.94 255.32Z" fill="#2366F9"/>
<path d="M440 175.633H462.873V163L487 186.997L462.862 211V198.367L440 175.633Z" fill="#2366F8"/>
<rect x="903.5" y="186.5" width="396" height="119" rx="7.5" fill="white" stroke="#2366F9"/>
<path d="M946 255L950.86 240.28H953.56L958.42 255H955.96L953.6 247.02C953.1 245.42 952.66 243.76 952.2 242.12H952.12C951.68 243.78 951.24 245.42 950.74 247.02L948.36 255H946ZM948.74 250.82V249H955.62V250.82H948.74ZM959.961 255V240.28H962.301V255H959.961ZM976.805 238.14H978.885V254.6H976.805V238.14ZM983.845 248.14H985.925V256.66H983.845V248.14ZM970.785 239.9H972.765V245.14H983.045V239.88H985.125V246.96H970.785V239.9ZM969.825 248.14H971.925V253.66H984.825V255.56H969.825V248.14ZM995.745 243.64H997.525C997.165 246.94 996.585 251.22 996.165 253.72H994.325C994.845 251.14 995.445 246.84 995.745 243.64ZM998.705 245.78L999.725 245.12C1000.49 245.72 1001.41 246.6 1001.85 247.2L1000.79 247.94C1000.39 247.32 999.485 246.42 998.705 245.78ZM998.185 249.98L999.245 249.3C1000.07 249.94 1001.09 250.9 1001.57 251.54L1000.47 252.32C1000.01 251.66 999.005 250.66 998.185 249.98ZM995.985 240.28H1006.33V242H995.985V240.28ZM996.525 243.64H1004.29V245.28H996.525V243.64ZM993.225 247.7H1006.85V249.42H993.225V247.7ZM995.285 252.1H1006.31V253.72H995.285V252.1ZM996.225 238.12L998.065 238.58C997.225 241.08 995.905 243.62 994.565 245.24C994.185 244.94 993.385 244.44 992.925 244.2C994.305 242.72 995.525 240.4 996.225 238.12ZM1003.75 243.64H1005.51C1005.51 243.64 1005.49 244.24 1005.47 244.5C1005.17 252.16 1004.85 254.82 1004.17 255.68C1003.75 256.24 1003.29 256.4 1002.65 256.48C1002.07 256.56 1001.09 256.54 1000.13 256.48C1000.09 256.02 999.905 255.34 999.625 254.9C1000.61 254.98 1001.47 255 1001.87 255C1002.21 255 1002.41 254.94 1002.61 254.7C1003.15 254.08 1003.49 251.36 1003.75 244.02V243.64ZM989.365 239.7L990.425 238.42C991.605 238.94 993.165 239.82 993.945 240.46L992.845 241.9C992.085 241.24 990.565 240.3 989.365 239.7ZM988.265 245.46L989.305 244.18C990.445 244.7 991.905 245.54 992.625 246.18L991.545 247.62C990.865 246.96 989.405 246.04 988.265 245.46ZM988.845 255.32C989.665 253.76 990.785 251.16 991.625 248.84L993.065 249.88C992.325 252 991.365 254.44 990.485 256.36L988.845 255.32ZM1018.89 244.82H1026.35V246.58H1018.89V244.82ZM1008.25 240.18H1017.17V241.74H1008.25V240.18ZM1008.05 248.12H1017.21V249.74H1008.05V248.12ZM1007.95 244.7H1017.49V246.28H1007.95V244.7ZM1022.45 245.58H1024.29V256.6H1022.45V245.58ZM1009.45 242.14L1010.97 241.78C1011.35 242.58 1011.67 243.68 1011.77 244.38L1010.17 244.82C1010.09 244.1 1009.81 242.98 1009.45 242.14ZM1014.43 241.76L1016.15 242.1C1015.73 243.24 1015.27 244.46 1014.87 245.26L1013.33 244.92C1013.71 244.06 1014.17 242.68 1014.43 241.76ZM1024.29 238.4L1025.79 239.8C1023.79 240.56 1021.05 241.14 1018.69 241.48C1018.61 241.08 1018.33 240.44 1018.11 240.04C1020.33 239.66 1022.85 239.04 1024.29 238.4ZM1011.23 238.44L1012.91 238.04C1013.35 238.86 1013.87 240 1014.07 240.68L1012.29 241.18C1012.11 240.46 1011.65 239.3 1011.23 238.44ZM1011.93 245.68H1013.65V254.5C1013.65 255.32 1013.49 255.74 1012.97 256.02C1012.45 256.28 1011.71 256.3 1010.69 256.3C1010.63 255.86 1010.41 255.18 1010.17 254.72C1010.83 254.74 1011.45 254.74 1011.67 254.74C1011.87 254.74 1011.93 254.68 1011.93 254.48V245.68ZM1018.11 240.04H1019.87V247C1019.87 249.9 1019.63 253.92 1017.83 256.48C1017.53 256.14 1016.77 255.56 1016.37 255.34C1017.97 253 1018.11 249.62 1018.11 247V240.04ZM1014.25 250.94L1015.51 250.26C1016.15 251.22 1016.85 252.46 1017.17 253.28L1015.85 254.08C1015.53 253.24 1014.83 251.9 1014.25 250.94ZM1009.61 250.4L1011.11 250.78C1010.63 252.14 1009.85 253.58 1009.07 254.5C1008.77 254.26 1008.15 253.8 1007.79 253.58C1008.57 252.76 1009.21 251.56 1009.61 250.4ZM1038.47 238.42L1040.27 238.7C1039.55 240.78 1038.49 243.02 1036.77 244.84C1036.45 244.46 1035.83 243.96 1035.39 243.74C1036.95 242.16 1037.95 240.1 1038.47 238.42ZM1039.13 239.98H1043.09V241.5H1037.75L1039.13 239.98ZM1028.37 240.68H1035.65V242.4H1028.37V240.68ZM1027.67 244.44H1036.13V246.2H1027.67V244.44ZM1032.51 248.6H1036.03V250.26H1032.51V248.6ZM1031.33 238.14H1033.11V245.14H1031.33V238.14ZM1031.69 245.26H1033.47V254.22H1031.69V245.26ZM1030.03 249.62C1031.39 253.82 1034.23 254.36 1038.59 254.36C1039.71 254.36 1044.79 254.36 1046.15 254.3C1045.87 254.74 1045.55 255.58 1045.43 256.14H1038.57C1033.47 256.14 1030.37 255.3 1028.81 250.04L1030.03 249.62ZM1028.65 247.42L1030.39 247.52C1030.29 251.34 1029.97 254.6 1028.61 256.76C1028.35 256.48 1027.61 255.9 1027.21 255.66C1028.43 253.78 1028.61 250.78 1028.65 247.42ZM1037.27 247.5H1043.87V249.12H1037.27V247.5ZM1036.95 244.04H1044.87V252.66H1036.51V250.98H1043.01V245.72H1036.95V244.04ZM1042.85 239.98H1043.09L1043.37 239.88L1044.61 240.28C1043.99 241.76 1043.17 243.56 1042.43 245.02L1040.71 244.5C1041.49 243.1 1042.41 241.22 1042.85 240.18V239.98ZM1047.21 243.78C1049.07 243.54 1051.89 243.12 1054.61 242.7L1054.69 244.34C1052.17 244.76 1049.51 245.18 1047.53 245.48L1047.21 243.78ZM1047.51 240H1054.53V241.66H1047.51V240ZM1050.35 238.14H1052.09V246.44C1052.09 247.32 1051.93 247.74 1051.33 248C1050.73 248.26 1049.87 248.3 1048.55 248.28C1048.49 247.82 1048.27 247.14 1048.03 246.7C1048.91 246.72 1049.77 246.72 1050.03 246.72C1050.27 246.72 1050.35 246.64 1050.35 246.42V238.14ZM1054.99 240.02H1062.69V241.6H1054.99V240.02ZM1054.77 243.7L1055.75 242.4C1057.51 243.4 1059.97 244.9 1061.19 245.88L1060.17 247.36C1059.01 246.34 1056.59 244.76 1054.77 243.7ZM1061.45 240H1063.19C1063.07 244.16 1063.07 246.44 1063.77 246.44C1064.09 246.44 1064.19 245.96 1064.25 244.72C1064.61 245.02 1065.21 245.3 1065.63 245.42C1065.45 247.5 1064.93 248.08 1063.69 248.08C1061.33 248.08 1061.41 244.9 1061.45 240ZM1057.77 238.12H1059.53C1059.39 243.3 1058.89 246.46 1055.15 248.22C1054.97 247.8 1054.47 247.18 1054.09 246.88C1057.37 245.38 1057.65 242.74 1057.77 238.12ZM1048.05 249.34H1062.57V251H1048.05V249.34ZM1061.73 249.34H1063.67C1063.67 249.34 1063.63 249.86 1063.59 250.12C1063.25 253.68 1062.89 255.24 1062.23 255.86C1061.75 256.32 1061.25 256.46 1060.47 256.5C1059.81 256.56 1058.59 256.54 1057.31 256.48C1057.27 255.94 1057.03 255.22 1056.71 254.76C1057.97 254.86 1059.27 254.88 1059.77 254.88C1060.19 254.88 1060.43 254.86 1060.65 254.68C1061.13 254.3 1061.45 252.84 1061.73 249.58V249.34ZM1054.57 248.02H1056.51C1055.97 252.22 1054.61 255.26 1048.11 256.72C1047.95 256.24 1047.49 255.5 1047.11 255.1C1053.11 253.92 1054.09 251.42 1054.57 248.02ZM1070.73 245.78H1082.43V247.54H1070.73V245.78ZM1071.67 240.74H1083.53V242.56H1071.67V240.74ZM1066.97 250.04H1079.45V251.86H1066.97V250.04ZM1081.97 245.78H1083.93C1083.93 245.78 1083.89 246.38 1083.85 246.64C1083.29 252.34 1082.75 254.7 1081.83 255.62C1081.25 256.22 1080.65 256.36 1079.71 256.44C1078.95 256.48 1077.49 256.46 1076.07 256.38C1076.03 255.82 1075.73 255.02 1075.33 254.5C1076.91 254.64 1078.51 254.64 1079.13 254.64C1079.63 254.64 1079.91 254.62 1080.19 254.4C1080.97 253.78 1081.51 251.32 1081.95 246.08L1081.97 245.78ZM1071.01 238.52L1072.93 238.7C1072.41 241.6 1071.65 245.34 1071.11 247.54L1069.11 247.52C1069.73 245.22 1070.53 241.38 1071.01 238.52ZM1096.49 239.28H1101.21V241.06H1096.49V239.28ZM1095.37 239.28H1097.21V245.72C1097.21 249.08 1096.77 253.74 1093.87 256.68C1093.59 256.32 1092.85 255.7 1092.43 255.46C1095.11 252.74 1095.37 248.78 1095.37 245.72V239.28ZM1100.41 239.28H1102.29V253.6C1102.29 254.2 1102.31 254.54 1102.39 254.62C1102.47 254.7 1102.57 254.74 1102.69 254.74C1102.81 254.74 1103.01 254.74 1103.17 254.74C1103.31 254.74 1103.43 254.7 1103.51 254.6C1103.61 254.5 1103.65 254.32 1103.69 253.86C1103.73 253.42 1103.75 252.4 1103.77 251.12C1104.13 251.46 1104.69 251.74 1105.15 251.9C1105.15 253.02 1105.07 254.46 1104.97 255C1104.87 255.58 1104.69 255.94 1104.37 256.18C1104.07 256.4 1103.67 256.48 1103.23 256.48C1102.91 256.48 1102.45 256.48 1102.17 256.48C1101.73 256.48 1101.23 256.34 1100.91 256.04C1100.55 255.7 1100.41 255.28 1100.41 253.56V239.28ZM1086.47 242.34H1094.27V244.14H1086.47V242.34ZM1089.65 238.12H1091.47V256.68H1089.65V238.12ZM1089.55 243.52L1090.73 243.92C1090.01 247.18 1088.55 251.06 1086.93 253.08C1086.75 252.56 1086.29 251.8 1085.99 251.34C1087.49 249.56 1088.93 246.28 1089.55 243.52ZM1091.31 245.52C1091.89 246.08 1093.97 248.48 1094.43 249.04L1093.31 250.58C1092.73 249.52 1091.11 247.3 1090.41 246.4L1091.31 245.52ZM1119.05 248.72L1120.21 248.46C1120.73 249.48 1121.23 250.88 1121.41 251.7L1120.17 252.04C1120.01 251.18 1119.53 249.78 1119.05 248.72ZM1114.21 242.66V244.02H1120.83V242.66H1114.21ZM1114.21 240.04V241.38H1120.83V240.04H1114.21ZM1112.53 238.68H1122.61V245.38H1112.53V238.68ZM1111.71 246.48H1122.49V248H1113.43V253.7H1111.71V246.48ZM1113.91 250.24C1115.59 250.16 1118.07 249.98 1120.55 249.84V251.18C1118.23 251.4 1115.87 251.58 1114.07 251.74L1113.91 250.24ZM1121.75 246.48H1123.51V252.42C1123.51 253.22 1123.35 253.58 1122.77 253.82C1122.21 254.02 1121.33 254.04 1120.05 254.04C1119.97 253.6 1119.73 253.08 1119.55 252.7C1120.37 252.74 1121.19 252.74 1121.43 252.72C1121.69 252.7 1121.75 252.64 1121.75 252.44V246.48ZM1116.65 239.32H1118.37V246.96H1116.65V239.32ZM1116.65 246.96H1118.27V250.9H1116.65V246.96ZM1110.33 245.06V253.34H1108.49V246.82H1106.13V245.06H1110.33ZM1106.39 240.28L1107.65 239.1C1108.91 239.82 1110.47 240.9 1111.23 241.7L1109.89 243.04C1109.17 242.24 1107.63 241.06 1106.39 240.28ZM1109.63 252.62C1110.27 252.62 1110.73 253.14 1111.83 253.8C1113.15 254.62 1114.85 254.74 1117.05 254.74C1119.23 254.74 1122.35 254.58 1124.39 254.32C1124.17 254.82 1123.89 255.74 1123.85 256.26C1122.43 256.36 1119.13 256.48 1116.99 256.48C1114.55 256.48 1112.91 256.22 1111.53 255.42C1110.73 254.92 1110.05 254.28 1109.59 254.28C1108.95 254.28 1107.97 255.48 1107.03 256.76L1105.79 255.08C1107.13 253.66 1108.57 252.62 1109.63 252.62Z" fill="#2366F9"/>
<path d="M880 175.633H902.873V163L927 186.997L902.862 211V198.367L880 175.633Z" fill="#2366F8"/>
<rect x="23.5" y="349.5" width="396" height="119" rx="7.5" fill="white" stroke="#2366F9"/>
<path d="M67.54 401.88H84.5V419.68H82.58V403.46H69.36V419.68H67.54V401.88ZM68.66 417.44H83.6V418.98H68.66V417.44ZM73.02 405.62V406.9H78.84V405.62H73.02ZM71.36 404.36H80.6V408.16H71.36V404.36ZM75.22 411.18H76.88V412.38C76.88 413.94 76.12 415.88 70.74 417.08C70.54 416.68 70.08 416.02 69.72 415.66C74.8 414.78 75.22 413.34 75.22 412.32V411.18ZM76.48 415L77.2 413.78C78.66 414.34 80.72 415.2 81.82 415.76L81.08 417.14C80.06 416.56 77.98 415.62 76.48 415ZM70.92 409.2H81.02V414.12H79.26V410.64H72.6V414.26H70.92V409.2ZM86.62 413.04H104.58V414.6H86.62V413.04ZM94.6 411.44H96.52V419.68H94.6V411.44ZM93.98 413.76L95.28 414.38C93.48 416.58 90.26 418.54 87.44 419.48C87.16 419.04 86.62 418.36 86.24 418C89.1 417.24 92.32 415.58 93.98 413.76ZM97.2 413.78C98.8 415.64 101.94 417.18 104.94 417.86C104.52 418.22 104 418.96 103.72 419.44C100.74 418.52 97.62 416.64 95.88 414.34L97.2 413.78ZM94.4 401.14H96.34V406.02H94.4V401.14ZM90.6 409.14V410.4H100.52V409.14H90.6ZM90.6 406.54V407.8H100.52V406.54H90.6ZM88.72 405.16H102.48V411.8H88.72V405.16ZM95.34 402.44H103.7V403.96H95.34V402.44ZM119.06 401.86C120.32 404.26 122.72 406.88 124.88 408.24C124.44 408.58 123.84 409.26 123.54 409.72C121.3 408.1 118.88 405.24 117.46 402.46L119.06 401.86ZM117.5 401.08L119.54 401.44C118.18 404.38 116.02 407.5 112.7 409.9C112.44 409.46 111.84 408.76 111.42 408.46C114.48 406.38 116.5 403.5 117.5 401.08ZM114.22 408.56H116.12V416.48C116.12 417.3 116.3 417.44 117.44 417.44C117.96 417.44 120.4 417.44 121.06 417.44C122.06 417.44 122.22 417.02 122.34 414.64C122.78 414.96 123.56 415.28 124.06 415.38C123.84 418.32 123.28 419.14 121.18 419.14C120.68 419.14 117.76 419.14 117.28 419.14C114.88 419.14 114.22 418.56 114.22 416.48V408.56ZM121.24 409.38L122.46 410.98C120.46 412.22 117.72 413.58 115.68 414.4L114.68 412.98C116.66 412.16 119.5 410.62 121.24 409.38ZM107.14 402.72L108.32 401.46C109.54 402.38 111.18 403.74 111.98 404.62L110.7 406.06C109.96 405.14 108.36 403.72 107.14 402.72ZM108.92 419.4L108.52 417.62L108.94 416.94L112.54 414.1C112.7 414.6 113 415.34 113.22 415.7C109.82 418.46 109.24 418.94 108.92 419.4ZM105.92 407.36H109.94V409.18H105.92V407.36ZM108.92 419.42C108.74 419.02 108.22 418.34 107.92 418.08C108.3 417.74 108.9 417.04 108.9 416.02V407.36H110.72V417.2C110.72 417.2 108.92 418.7 108.92 419.42ZM133.2 402.6H142.82V404.42H133.2V402.6ZM132.24 408.38H143.8V410.2H132.24V408.38ZM139.3 412.96L140.98 412.32C142.08 414.42 143.46 417.2 144.1 418.86L142.26 419.62C141.68 417.96 140.36 415.08 139.3 412.96ZM132.64 418.96L132.56 417.4L133.62 416.72L141.98 415.82C142 416.36 142.12 417.14 142.2 417.56C134.3 418.5 133.3 418.66 132.64 418.96ZM132.64 418.94C132.54 418.52 132.2 417.54 131.96 416.98C132.38 416.86 132.76 416.36 133.26 415.58C133.78 414.8 135.32 411.86 136.18 409.08L138.3 409.74C137.14 412.68 135.52 415.7 134.02 417.8V417.86C134.02 417.86 132.64 418.54 132.64 418.94ZM125.5 405.86H132.04V407.66H125.5V405.86ZM127.86 401.38H129.84V414.78H127.86V401.38ZM125.38 415.4C127.02 414.8 129.56 413.74 131.98 412.72L132.38 414.38C130.16 415.44 127.78 416.52 125.92 417.34L125.38 415.4Z" fill="#2366F9"/>
<path d="M0 338.633H22.8732V326L47 349.997L22.862 374V361.367L0 338.633Z" fill="#2366F8"/>
</svg>
