<svg width="201" height="66" viewBox="0 0 201 66" fill="none" xmlns="http://www.w3.org/2000/svg">
<path d="M196.145 2L150.285 47.4961H17.4521C16.3966 47.4962 15.384 47.9136 14.6348 48.6572L2 61.1973V2H196.145Z" fill="#2366F9"/>
<path d="M196.145 2L150.285 47.4961H17.4521C16.3966 47.4962 15.384 47.9136 14.6348 48.6572L2 61.1973V2H196.145Z" stroke="white" stroke-width="4"/>
<path d="M196.145 2L150.285 47.4961H17.4521C16.3966 47.4962 15.384 47.9136 14.6348 48.6572L2 61.1973V2H196.145Z" stroke="#D8E4FF" stroke-width="4"/>
<path d="M28.74 22.14H48.33V24.54H28.74V22.14ZM27.99 27.24H49.56V29.67H27.99V27.24ZM32.94 19.53H35.55V28.47H32.94V19.53ZM40.92 19.53H43.59V28.44H40.92V19.53ZM25.05 12.06H27.93V20.91C27.93 26.1 27.48 33.66 24.33 38.58C23.76 38.16 22.5 37.41 21.81 37.14C24.81 32.46 25.05 25.71 25.05 20.91V12.06ZM26.79 12.06H47.85V19.53H26.79V17.07H45V14.49H26.79V12.06ZM39.24 28.17C40.89 32.31 44.58 35.16 49.92 36.21C49.35 36.75 48.6 37.8 48.24 38.55C42.54 37.11 38.85 33.78 36.87 28.71L39.24 28.17ZM46.08 29.58L48.21 31.05C46.59 32.28 44.46 33.48 42.84 34.29L41.04 32.91C42.6 32.07 44.82 30.63 46.08 29.58ZM30.54 38.61L30.42 36.51L31.53 35.61L39.45 33.93C39.33 34.65 39.24 35.73 39.27 36.3C32.1 37.98 31.14 38.25 30.54 38.61ZM30.54 38.64C30.39 37.98 29.85 36.84 29.46 36.3C30.03 35.97 30.96 35.19 30.96 33.78V28.35L33.6 28.44V35.7C33.6 35.7 30.54 37.62 30.54 38.64ZM53.64 25.68H78.54V28.44H53.64V25.68ZM58.95 19.89H73.14V22.5H58.95V19.89ZM69.24 30.42L71.64 29.16C74.31 31.5 77.13 34.71 78.48 36.96L75.93 38.52C74.67 36.24 71.82 32.82 69.24 30.42ZM66 10.62L68.64 11.82C65.31 16.53 60.12 20.43 54.09 23.16C53.67 22.44 52.71 21.21 52.05 20.67C57.87 18.33 63.21 14.58 66 10.62ZM66.57 11.91C69.09 14.82 74.67 18.54 80.07 20.34C79.44 20.91 78.51 22.08 78.06 22.83C72.78 20.7 67.35 16.56 64.68 13.47L66.57 11.91ZM55.71 37.95C55.56 37.32 55.08 35.82 54.75 35.04C55.47 34.89 56.13 34.35 57.09 33.48C58.08 32.67 61.11 29.52 63.18 26.31L65.85 28.08C63.48 31.17 60.57 34.23 57.75 36.39V36.48C57.75 36.48 55.71 37.35 55.71 37.95ZM55.71 37.95L55.68 35.67L57.6 34.62L75 33.45C75.09 34.23 75.36 35.4 75.54 36C58.95 37.32 57.06 37.44 55.71 37.95ZM94.35 23.37L96.48 21.84C99.36 24.36 103.14 27.96 105 30.27L102.66 32.1C100.95 29.79 97.23 26.04 94.35 23.37ZM94.56 10.68H97.47V17.13C97.47 22.02 96.42 28.26 89.1 32.58C88.68 31.98 87.72 30.96 87.06 30.45C94.11 26.73 94.56 21.18 94.56 17.13V10.68ZM83.82 15.75H106.68V18.54H86.64V38.58H83.82V15.75ZM105.42 15.75H108.24V35.07C108.24 36.75 107.85 37.59 106.74 38.07C105.6 38.52 103.71 38.55 101.04 38.55C100.92 37.74 100.47 36.45 100.08 35.7C102.06 35.79 104.07 35.76 104.67 35.76C105.24 35.73 105.42 35.55 105.42 35.04V15.75ZM120.75 16.95L123.42 17.82C121.47 20.49 118.41 23.01 115.65 24.57C115.23 24.03 114.27 22.89 113.67 22.38C116.37 21.12 119.13 19.08 120.75 16.95ZM128.25 18.6L130.17 16.98C132.81 18.54 136.23 20.94 137.91 22.62L135.87 24.48C134.28 22.8 130.95 20.28 128.25 18.6ZM117.48 28.35H134.58V38.46H131.7V30.87H120.21V38.55H117.48V28.35ZM118.95 35.1H133.05V37.62H118.95V35.1ZM113.31 13.29H138.66V19.2H135.78V15.87H116.1V19.2H113.31V13.29ZM123.72 11.07L126.66 10.41C127.35 11.55 128.07 13.08 128.37 14.1L125.28 14.82C125.04 13.83 124.35 12.27 123.72 11.07ZM125.64 19.62L128.1 20.7C124.89 25.74 119.61 29.64 113.79 32.01C113.37 31.32 112.65 30.33 111.99 29.73C117.54 27.75 122.82 24.15 125.64 19.62ZM126.9 20.7C130.41 24.87 134.79 27.33 139.92 29.28C139.26 29.88 138.48 30.81 138.12 31.65C132.84 29.28 128.52 26.55 124.62 21.78L126.9 20.7Z" fill="white"/>
</svg>
