<svg width="201" height="66" viewBox="0 0 201 66" fill="none" xmlns="http://www.w3.org/2000/svg">
<path d="M196.145 2L150.285 47.4961H17.4521C16.3966 47.4962 15.384 47.9136 14.6348 48.6572L2 61.1973V2H196.145Z" fill="#BCD6FF" stroke="white" stroke-width="4"/>
<path d="M28.47 20.43H43.56V23.07H28.47V20.43ZM27.99 34.32H43.83V36.96H27.99V34.32ZM26.73 26.22H45.72V38.37H42.69V28.74H29.61V38.46H26.73V26.22ZM36.39 10.59L38.91 11.85C35.43 17.01 29.85 21.27 24.09 23.88C23.64 23.1 22.83 22.02 22.02 21.33C27.66 19.11 33.27 15.24 36.39 10.59ZM37.17 12.48C41.04 16.56 45.42 19.05 50.19 20.94C49.47 21.6 48.63 22.65 48.24 23.55C43.38 21.24 39.06 18.51 34.74 13.71L37.17 12.48ZM65.67 15.66H79.98V18.36H64.35L65.67 15.66ZM69.51 22.2H79.26V24.78H69.51V22.2ZM69.48 28.83H79.65V31.5H69.48V28.83ZM68.07 16.56H70.98V38.52H68.07V16.56ZM66.63 11.01L69.36 11.73C67.68 16.53 65.04 21.36 62.28 24.48C61.83 23.97 60.72 22.95 60.09 22.5C62.79 19.74 65.19 15.39 66.63 11.01ZM59.1 10.8L61.83 11.67C59.88 16.77 56.76 22.05 53.49 25.41C53.22 24.75 52.38 23.16 51.87 22.47C54.75 19.65 57.48 15.24 59.1 10.8ZM55.98 18.78L58.8 15.93L58.83 15.96V38.49H55.98V18.78ZM106.71 16.2L109.8 17.01C108.81 20.04 107.52 23.46 106.47 25.68L103.92 24.9C104.91 22.59 106.11 18.9 106.71 16.2ZM92.88 16.32L95.58 16.71C95.37 19.86 94.65 23.7 93.51 26.16L90.78 25.08C91.86 22.95 92.61 19.29 92.88 16.32ZM88.92 10.71L91.65 11.58C89.7 16.65 86.61 21.87 83.37 25.26C83.1 24.57 82.29 23.01 81.78 22.29C84.63 19.5 87.33 15.12 88.92 10.71ZM85.86 18.72L88.8 15.81L88.83 15.84V38.49H85.86V18.72ZM98.58 11.01H101.64C101.58 24.84 101.64 33.93 91.71 38.55C91.32 37.83 90.39 36.75 89.73 36.21C99 32.07 98.55 24.18 98.58 11.01ZM101.25 21.9C102.18 28.92 104.43 33.9 110.25 35.85C109.62 36.42 108.75 37.62 108.36 38.43C102.09 35.94 99.78 30.45 98.67 22.23L101.25 21.9ZM128.55 11.07H131.4V38.52H128.55V11.07ZM121.44 20.25H138.75V22.89H121.44V20.25ZM120.21 27.63H139.98V30.27H120.21V27.63ZM121.62 13.11L123.99 12.21C125.13 14.19 126.27 16.83 126.66 18.51L124.11 19.56C123.75 17.88 122.7 15.18 121.62 13.11ZM135.99 11.97L138.87 13.02C137.79 15.27 136.53 17.82 135.51 19.5L133.2 18.57C134.16 16.8 135.36 13.98 135.99 11.97ZM119.01 10.77L121.65 11.61C119.61 16.68 116.37 21.87 113.01 25.23C112.74 24.57 111.96 23.07 111.48 22.38C114.42 19.59 117.3 15.21 119.01 10.77ZM115.98 18.75L118.65 16.05L118.68 16.08V38.46H115.98V18.75Z" fill="#2366F9"/>
</svg>
