<svg width="256" height="256" viewBox="0 0 256 256" fill="none" xmlns="http://www.w3.org/2000/svg">
  <rect width="256" height="256" rx="28" fill="white"/>
  <rect x="20" y="20" width="216" height="216" rx="18" fill="white"/>
  <rect x="34" y="34" width="188" height="188" fill="white"/>
  <rect x="34" y="34" width="56" height="56" rx="8" fill="#2C63F4"/>
  <rect x="46" y="46" width="32" height="32" rx="4" fill="white"/>
  <rect x="56" y="56" width="12" height="12" rx="2" fill="#2C63F4"/>
  <rect x="166" y="34" width="56" height="56" rx="8" fill="#2C63F4"/>
  <rect x="178" y="46" width="32" height="32" rx="4" fill="white"/>
  <rect x="188" y="56" width="12" height="12" rx="2" fill="#2C63F4"/>
  <rect x="34" y="166" width="56" height="56" rx="8" fill="#2C63F4"/>
  <rect x="46" y="178" width="32" height="32" rx="4" fill="white"/>
  <rect x="56" y="188" width="12" height="12" rx="2" fill="#2C63F4"/>
  <rect x="106" y="40" width="12" height="12" rx="2" fill="#2C63F4"/>
  <rect x="126" y="40" width="12" height="12" rx="2" fill="#2C63F4"/>
  <rect x="146" y="40" width="12" height="12" rx="2" fill="#2C63F4"/>
  <rect x="106" y="60" width="12" height="12" rx="2" fill="#2C63F4"/>
  <rect x="146" y="60" width="12" height="12" rx="2" fill="#2C63F4"/>
  <rect x="126" y="80" width="12" height="12" rx="2" fill="#2C63F4"/>
  <rect x="106" y="100" width="12" height="12" rx="2" fill="#2C63F4"/>
  <rect x="126" y="100" width="12" height="12" rx="2" fill="#2C63F4"/>
  <rect x="146" y="100" width="12" height="12" rx="2" fill="#2C63F4"/>
  <rect x="166" y="100" width="12" height="12" rx="2" fill="#2C63F4"/>
  <rect x="186" y="100" width="12" height="12" rx="2" fill="#2C63F4"/>
  <rect x="206" y="100" width="12" height="12" rx="2" fill="#2C63F4"/>
  <rect x="106" y="120" width="12" height="12" rx="2" fill="#2C63F4"/>
  <rect x="146" y="120" width="12" height="12" rx="2" fill="#2C63F4"/>
  <rect x="186" y="120" width="12" height="12" rx="2" fill="#2C63F4"/>
  <rect x="106" y="140" width="12" height="12" rx="2" fill="#2C63F4"/>
  <rect x="126" y="140" width="12" height="12" rx="2" fill="#2C63F4"/>
  <rect x="166" y="140" width="12" height="12" rx="2" fill="#2C63F4"/>
  <rect x="186" y="140" width="12" height="12" rx="2" fill="#2C63F4"/>
  <rect x="206" y="140" width="12" height="12" rx="2" fill="#2C63F4"/>
  <rect x="106" y="160" width="12" height="12" rx="2" fill="#2C63F4"/>
  <rect x="126" y="160" width="12" height="12" rx="2" fill="#2C63F4"/>
  <rect x="146" y="160" width="12" height="12" rx="2" fill="#2C63F4"/>
  <rect x="166" y="160" width="12" height="12" rx="2" fill="#2C63F4"/>
  <rect x="206" y="160" width="12" height="12" rx="2" fill="#2C63F4"/>
  <rect x="106" y="180" width="12" height="12" rx="2" fill="#2C63F4"/>
  <rect x="146" y="180" width="12" height="12" rx="2" fill="#2C63F4"/>
  <rect x="166" y="180" width="12" height="12" rx="2" fill="#2C63F4"/>
  <rect x="186" y="180" width="12" height="12" rx="2" fill="#2C63F4"/>
  <rect x="126" y="200" width="12" height="12" rx="2" fill="#2C63F4"/>
  <rect x="146" y="200" width="12" height="12" rx="2" fill="#2C63F4"/>
  <rect x="186" y="200" width="12" height="12" rx="2" fill="#2C63F4"/>
  <rect x="206" y="200" width="12" height="12" rx="2" fill="#2C63F4"/>
</svg>
