<svg width="1325" height="382" viewBox="0 0 1325 382" fill="none" xmlns="http://www.w3.org/2000/svg">
<path d="M480.076 34.1H556.376V43.4H480.076V34.1ZM473.976 102.9H563.276V112.3H473.976V102.9ZM508.676 37.4H519.276C515.976 60.7 510.976 90.9 507.176 108.6H496.776C500.876 90.4 505.976 60.1 508.676 37.4ZM485.576 63.2H540.176V72.4H485.576V63.2ZM536.676 63.2H537.676L539.376 62.8L546.776 63.4C546.076 76.7 544.276 95.1 542.476 109.5L532.576 108.7C534.376 94.4 536.076 74.5 536.676 64.3V63.2ZM570.376 52.6H658.776V62.3H570.376V52.6ZM620.276 56.5C626.576 80.1 639.776 99.7 660.676 108.3C658.276 110.4 655.176 114.5 653.576 117.2C631.376 106.8 618.276 85.9 610.776 58.7L620.276 56.5ZM609.276 24.7H619.576C619.176 52.8 618.976 96.9 575.576 117.2C574.076 114.7 571.176 111.3 568.476 109.3C610.276 90.9 608.976 50 609.276 24.7ZM705.176 44.9H714.976V117.1H705.176V44.9ZM665.176 38.8H755.976V48.1H665.176V38.8ZM674.376 60.6H740.176V69.9H683.876V106.4H674.376V60.6ZM737.776 60.6H747.576V95.3C747.576 100.3 746.476 103.1 742.776 104.6C738.976 106.1 733.276 106.2 725.076 106.2C724.676 103.4 723.176 99.5 721.876 96.9C727.876 97.1 733.876 97.1 735.576 97.1C737.276 97 737.776 96.5 737.776 95.2V60.6ZM700.976 26.6L710.276 23.7C712.976 28.4 716.476 34.8 717.976 38.8L708.176 42.1C706.876 38.1 703.676 31.4 700.976 26.6ZM761.076 48.8H792.076V57.8H761.076V48.8ZM772.676 25.9H781.576V92.9H772.676V25.9ZM759.576 95.2C767.676 92.7 779.976 88.2 791.676 83.9L793.476 92.5C782.976 96.8 771.576 101.4 762.676 104.8L759.576 95.2ZM793.876 29.3H835.876V38.2H793.876V29.3ZM841.776 56.5H851.276C851.276 56.5 851.176 59.6 850.976 60.8C848.976 95.7 846.876 108.3 843.376 112.6C841.276 115.3 839.076 116.2 835.976 116.5C833.376 116.9 829.276 116.9 824.776 116.8C824.676 114.1 823.676 110.3 822.176 107.8C826.276 108.2 829.876 108.3 831.676 108.3C833.276 108.3 834.176 108 835.176 106.7C837.876 103.8 839.976 91.3 841.776 58.4V56.5ZM797.976 66.7C797.276 64.7 795.276 60.2 793.976 57.9C796.776 57.5 800.476 55.4 804.276 52.9C808.276 50.4 821.976 41 831.276 30.8V30.2L835.776 28.5L842.676 33.8C829.476 45.7 816.076 55.5 804.276 62.1V62.3C804.276 62.3 797.976 64.9 797.976 66.7ZM797.976 66.7V59L802.776 56.5H845.076L844.976 65.4H806.776C802.376 65.4 798.876 65.9 797.976 66.7ZM828.276 61.8L836.576 63.4C830.176 87.4 818.476 105.6 802.076 117.1C800.576 115.6 796.976 113 794.876 111.8C811.776 101.5 822.676 84 828.276 61.8ZM812.376 61.9L820.676 63.5C816.476 77.2 808.376 88.3 798.676 95.5C797.176 94.1 793.676 91.4 791.676 90.3C801.376 84 808.776 73.9 812.376 61.9Z" fill="url(#paint0_linear_343_666)"/>
<g style="mix-blend-mode:multiply">
<path d="M188.87 335.465V302.126L293.563 197.432C295.474 195.521 296.544 192.923 296.544 190.222V112.384C296.544 108.256 294.06 104.549 290.25 102.969C286.441 101.389 282.059 102.268 279.142 105.186L256.172 128.168L26.8615 128.486C21.2433 128.486 16.6826 133.06 16.6826 138.678V183.674C16.6826 186.375 17.7527 188.973 19.6637 190.884L171.467 342.688C174.385 345.605 178.767 346.472 182.576 344.892C186.385 343.312 188.87 339.592 188.87 335.478V335.465ZM178.678 335.465V297.896L286.352 190.209L178.665 297.896V335.465H178.678Z" fill="#C2D6FF"/>
</g>
<path d="M303.908 186.207V108.368C303.908 104.241 301.424 100.534 297.614 98.954C293.805 97.3743 289.423 98.2533 286.506 101.171L263.536 124.153L34.2255 124.471C28.6074 124.471 24.0466 129.045 24.0466 134.663V179.659C24.0466 182.359 25.1167 184.958 27.0277 186.869L178.831 338.673C181.749 341.59 186.131 342.457 189.94 340.877C193.749 339.297 196.234 335.577 196.234 331.462V298.123L300.927 193.43C302.838 191.519 303.908 188.92 303.908 186.219V186.207Z" fill="white" stroke="#0669F7" stroke-width="0.5" stroke-miterlimit="10"/>
<path d="M186.042 293.894L293.716 186.207V108.369L267.766 134.332L34.251 134.65V179.646L186.042 331.45V293.894Z" fill="#D8E4FF"/>
<path d="M129.816 180.027H139.32V183.867H129.816V180.027ZM145.464 172.987H149.464V196.059C149.464 197.851 149.656 198.107 150.808 198.107C151.352 198.107 153.56 198.107 154.136 198.107C155.352 198.107 155.576 196.795 155.8 191.611C156.728 192.347 158.392 193.115 159.448 193.371C159.096 199.515 158.136 201.883 154.52 201.883C153.752 201.883 150.936 201.883 150.232 201.883C146.552 201.883 145.464 200.539 145.464 195.995V172.987ZM137.432 172.955H141.432V202.139H137.432V172.955ZM156.056 177.755L158.808 181.211C155.512 183.451 151.448 185.691 147.832 187.515C147.544 186.651 146.808 185.307 146.264 184.475C149.752 182.683 153.496 179.931 156.056 177.755ZM128.696 194.555C131.288 193.787 135.352 192.347 139.192 190.971L139.896 194.459C136.696 195.899 133.208 197.339 130.392 198.491L128.696 194.555ZM162.36 176.379H188.44V179.771H162.36V176.379ZM163.832 181.371H187.16V184.603H163.832V181.371ZM161.976 191.291H189.432V194.715H161.976V191.291ZM160.984 186.299H190.104V189.659H160.984V186.299ZM173.368 178.491H177.304V188.987H173.368V178.491ZM166.296 173.563L169.72 172.219C170.744 173.339 171.736 174.875 172.152 175.963L168.568 177.531C168.216 176.411 167.256 174.747 166.296 173.563ZM180.568 172.219L184.696 173.243C183.608 174.971 182.424 176.603 181.496 177.723L178.04 176.699C178.904 175.451 179.96 173.595 180.568 172.219ZM172.92 188.987H176.952C176.248 196.155 174.36 200.475 162.264 202.427C161.976 201.435 161.048 199.835 160.312 198.971C171.224 197.563 172.344 194.491 172.92 188.987ZM177.784 192.507C179.704 196.475 183.832 198.427 190.68 198.939C189.848 199.771 188.824 201.403 188.344 202.491C180.824 201.531 176.76 198.747 174.232 193.147L177.784 192.507Z" fill="#2366F9"/>
<g style="mix-blend-mode:multiply">
<path d="M563.719 122.977C560.887 122.977 558.162 124.099 556.158 126.102C554.154 128.106 553.032 130.831 553.032 133.663V296.915C553.032 301.243 555.637 305.131 559.631 306.787C563.625 308.444 568.22 307.522 571.279 304.476L608.963 266.792H706.68C709.511 266.792 712.237 265.67 714.24 263.666L836.669 141.237C839.729 138.178 840.637 133.583 838.98 129.589C837.324 125.595 833.423 122.99 829.109 122.99H563.719V122.977Z" fill="#C2D6FF"/>
</g>
<path d="M570.946 126.437V289.676L611.756 248.866H713.893L836.336 126.437H570.946Z" fill="#2366F9"/>
<path d="M648.04 178.875L651.4 179.547C649.64 186.427 646.792 193.019 643.304 197.179C642.728 196.571 641.32 195.419 640.52 194.907C643.944 191.163 646.536 185.115 648.04 178.875ZM640.296 181.243L643.176 179.771C646.568 184.411 650.44 190.555 652.008 194.587L648.744 196.347C647.336 192.347 643.624 185.979 640.296 181.243ZM655.08 177.051H664.168V180.539H655.08V177.051ZM654.696 172.347L658.28 172.891C657.448 178.267 655.88 183.355 653.672 186.555C653 185.979 651.4 184.987 650.536 184.539C652.776 181.755 654.088 177.115 654.696 172.347ZM663.304 177.051H663.848L664.424 176.891L666.984 177.627C666.248 180.827 665.224 184.443 664.232 186.843L661.256 185.883C661.992 183.803 662.856 180.347 663.304 177.627V177.051ZM659.752 185.819C661 192.379 662.888 196.251 666.824 199.515C665.928 200.219 664.84 201.403 664.36 202.427C659.912 198.427 657.928 193.915 656.52 186.459L659.752 185.819ZM656.488 181.979H660.04V184.507C660.04 189.371 659.272 197.115 653.32 202.715C652.808 201.819 651.592 200.443 650.824 199.835C655.944 195.131 656.488 188.571 656.488 184.443V181.979ZM651.848 174.651V178.139H641.416V197.819H651.752V201.275H637.672V174.651H651.848ZM686.408 173.851H689.992V201.563H686.408V173.851ZM693.128 173.211H696.808V202.459H693.128V173.211ZM679.72 173.243H683.336V183.995C683.336 190.331 682.92 197.147 679.208 202.491C678.472 201.787 676.936 200.731 675.944 200.251C679.368 195.515 679.72 189.627 679.72 183.963V173.243ZM676.968 181.755L679.848 182.619C679.4 185.435 678.696 188.827 677.352 190.971L674.536 189.435C675.752 187.483 676.584 184.443 676.968 181.755ZM682.28 183.451L684.968 182.395C686.024 184.475 686.952 187.259 687.272 189.115L684.424 190.267C684.168 188.411 683.24 185.595 682.28 183.451ZM688.552 183.003L691.304 181.755C692.68 183.931 693.992 186.843 694.536 188.795L691.624 190.171C691.144 188.219 689.832 185.211 688.552 183.003ZM669.128 175.515L671.368 172.699C673.064 173.563 675.528 174.907 676.744 175.835L674.376 178.971C673.288 177.979 670.888 176.475 669.128 175.515ZM667.88 184.059L670.056 181.275C671.752 182.075 674.216 183.355 675.496 184.251L673.192 187.323C672.04 186.395 669.64 184.987 667.88 184.059ZM668.424 200.187C669.672 197.691 671.336 193.627 672.616 189.883L675.72 191.867C674.6 195.291 673.224 199.003 671.912 202.139L668.424 200.187Z" fill="white"/>
<path d="M570.945 126.437H836.335L713.906 248.866H611.769L570.959 289.676V126.424M563.385 118.876C561.381 120.88 560.259 123.605 560.259 126.437V289.689C560.259 294.017 562.864 297.905 566.858 299.561C570.852 301.217 575.447 300.296 578.506 297.25L616.19 259.566H713.906C716.738 259.566 719.463 258.444 721.467 256.44L843.896 134.011C846.955 130.952 847.864 126.357 846.207 122.363C844.551 118.369 840.65 115.764 836.335 115.764H570.945C568.113 115.764 565.388 116.886 563.385 118.89V118.876Z" fill="white"/>
<path d="M570.945 126.437H836.335L713.906 248.866H611.769L570.959 289.676V126.424M563.385 118.876C561.381 120.88 560.259 123.605 560.259 126.437V289.689C560.259 294.017 562.864 297.905 566.858 299.561C570.852 301.217 575.447 300.296 578.506 297.25L616.19 259.566H713.906C716.738 259.566 719.463 258.444 721.467 256.44L843.896 134.011C846.955 130.952 847.864 126.357 846.207 122.363C844.551 118.369 840.65 115.764 836.335 115.764H570.945C568.113 115.764 565.388 116.886 563.385 118.89V118.876Z" stroke="#0669F7" stroke-width="0.5" stroke-miterlimit="10"/>
<g style="mix-blend-mode:multiply">
<path d="M1008.57 137.186L1194.33 323.392C1197.47 326.539 1202.19 327.473 1206.29 325.769C1210.39 324.065 1213.06 320.053 1213.06 315.615V280.575L1293.76 199.694C1295.82 197.633 1296.97 194.83 1296.97 191.917C1296.97 189.004 1295.82 186.201 1293.76 184.139L1231.39 121.631C1229.33 119.57 1226.54 118.416 1223.63 118.416H1016.33C1011.89 118.416 1007.9 121.095 1006.2 125.204C1004.5 129.312 1005.44 134.039 1008.57 137.186Z" fill="#C2D6FF"/>
</g>
<path d="M1025.46 126.756H1232.77L1295.13 189.265L1211.21 273.361L1211.22 312.949L1025.46 126.756Z" fill="#2366F9"/>
<path d="M1148.57 174.363H1170.9V202.075H1166.78V178.235H1152.54V202.107H1148.57V174.363ZM1151.29 185.115H1168.5V188.923H1151.29V185.115ZM1151.26 196.155H1168.5V200.027H1151.26V196.155ZM1176.89 178.651H1205.21V182.555H1176.89V178.651ZM1182.23 193.179H1199.67V197.083H1182.23V193.179ZM1188.95 172.443H1193.05V202.491H1188.95V172.443ZM1185.72 180.059L1189.24 181.083C1187.03 187.899 1183.32 194.043 1178.62 197.723C1177.94 196.763 1176.66 195.355 1175.77 194.587C1180.15 191.611 1183.86 185.819 1185.72 180.059ZM1196.18 180.155C1198.04 185.723 1201.72 191.259 1206.14 194.203C1205.14 194.971 1203.77 196.507 1203.06 197.595C1198.46 193.979 1194.87 187.835 1192.7 181.147L1196.18 180.155Z" fill="white"/>
<path d="M1025.46 126.757H1232.76L1295.12 189.265L1211.2 273.361V312.949L1025.46 126.757ZM1017.71 134.52L1203.48 320.727C1206.62 323.873 1211.33 324.808 1215.43 323.104C1219.53 321.4 1222.2 317.387 1222.2 312.949V277.909L1302.91 197.029C1304.96 194.968 1306.11 192.164 1306.11 189.251C1306.11 186.338 1304.96 183.535 1302.91 181.474L1240.52 118.979C1238.46 116.918 1235.67 115.764 1232.76 115.764H1025.46C1021.02 115.764 1017.03 118.443 1015.33 122.552C1013.63 126.66 1014.57 131.387 1017.7 134.534L1017.71 134.52Z" fill="white" stroke="#0669F7" stroke-width="0.5" stroke-miterlimit="10"/>
<g style="mix-blend-mode:multiply">
<path d="M854.512 377.89L1034.68 197.713C1037.72 194.668 1038.62 190.095 1036.98 186.119C1035.33 182.144 1031.44 179.551 1027.15 179.551H993.244L914.996 101.29C913.002 99.2951 910.29 98.1782 907.471 98.1782C904.652 98.1782 901.94 99.2951 899.945 101.29L839.461 161.774C837.466 163.768 836.35 166.481 836.35 169.299V370.364C836.35 374.672 838.942 378.541 842.918 380.19C846.893 381.839 851.467 380.921 854.512 377.89Z" fill="#C2D6FF"/>
</g>
<path d="M854.252 370.364V169.3L914.737 108.815L996.109 190.201L1034.42 190.188L854.252 370.364Z" fill="#D8E4FF"/>
<path d="M877.311 222.123V219.147L879.519 217.867H900.351L900.319 221.611H881.087C879.327 221.611 877.631 221.771 877.311 222.123ZM887.647 213.803H891.551V230.123C891.551 232.043 891.167 233.131 889.855 233.739C888.607 234.379 886.783 234.507 884.447 234.507C884.255 233.387 883.583 231.627 883.039 230.571C884.671 230.635 886.431 230.635 886.975 230.603C887.487 230.603 887.647 230.475 887.647 230.027V213.803ZM879.455 223.531L883.295 224.587C881.823 228.043 879.391 231.563 877.119 233.771C876.383 233.067 874.783 231.851 873.855 231.307C876.159 229.451 878.271 226.475 879.455 223.531ZM893.247 225.067L896.511 223.531C898.719 225.899 901.503 229.195 902.783 231.435L899.263 233.227C898.111 231.051 895.455 227.563 893.247 225.067ZM874.271 208.779H901.855V212.427H874.271V208.779ZM877.311 222.123C877.087 221.291 876.415 219.307 875.903 218.219C876.863 217.963 877.535 217.195 878.591 215.819C879.711 214.507 882.943 209.419 884.991 204.395L889.247 205.867C886.687 211.211 883.327 216.267 880.287 219.915V219.979C880.287 219.979 877.311 221.355 877.311 222.123ZM905.183 207.339H933.599V210.923H905.183V207.339ZM912.191 221.099H926.527V224.075H912.191V221.099ZM911.519 226.187H927.231V229.259H911.519V226.187ZM917.439 222.539H921.087V233.803H917.439V222.539ZM906.367 213.323H929.535V216.843H910.239V234.667H906.367V213.323ZM928.447 213.323H932.415V230.827C932.415 232.683 931.967 233.547 930.655 234.091C929.375 234.635 927.487 234.667 924.895 234.667C924.703 233.675 924.127 232.267 923.615 231.403C925.183 231.499 927.199 231.499 927.711 231.467C928.287 231.435 928.447 231.275 928.447 230.795V213.323ZM913.407 217.707L916.479 216.811C917.215 217.835 917.951 219.307 918.303 220.267L915.103 221.355C914.815 220.331 914.079 218.827 913.407 217.707ZM922.431 216.875L925.695 217.771C924.831 219.307 923.967 220.811 923.231 221.835L920.511 221.035C921.183 219.851 922.015 218.091 922.431 216.875ZM917.311 204.875H921.535V215.787H917.311V204.875ZM935.775 229.483H965.631V233.163H935.775V229.483ZM944.543 208.043H948.735V232.075H944.543V208.043ZM952.447 208.043H956.639V232.299H952.447V208.043ZM960.479 213.515L964.255 214.731C963.039 218.731 961.407 223.051 960.063 225.931L956.575 224.747C957.951 221.803 959.647 217.195 960.479 213.515ZM936.927 214.827L940.319 213.579C941.791 217.131 943.615 221.867 944.447 224.747L940.735 226.315C940.031 223.371 938.335 218.539 936.927 214.827ZM936.895 206.443H964.767V210.251H936.895V206.443Z" fill="#2366F9"/>
<path d="M854.253 370.364V169.299L914.737 108.815L996.109 190.214H1034.42L854.253 370.364ZM861.765 377.89L1041.94 197.713C1044.99 194.668 1045.89 190.095 1044.24 186.119C1042.59 182.144 1038.71 179.551 1034.42 179.551H1000.51L922.263 101.29C920.268 99.2951 917.556 98.1782 914.737 98.1782C911.918 98.1782 909.206 99.2951 907.211 101.29L846.727 161.774C844.733 163.768 843.616 166.481 843.616 169.299V370.364C843.616 374.672 846.208 378.541 850.184 380.19C854.16 381.839 858.733 380.921 861.778 377.89H861.765Z" fill="white" stroke="#0669F7" stroke-width="0.5" stroke-miterlimit="10"/>
<path d="M521.935 118.922C519.91 116.898 517.17 115.764 514.295 115.764L325.603 115.791C321.23 115.791 317.302 118.423 315.628 122.459C313.954 126.495 314.886 131.138 317.963 134.229L360.415 176.681L280.695 256.402C277.604 259.493 276.686 264.136 278.346 268.172C280.02 272.208 283.948 274.84 288.321 274.84L458.696 274.962L506.668 322.934C508.734 325 511.501 326.093 514.308 326.093C515.699 326.093 517.103 325.823 518.439 325.27C522.475 323.596 525.107 319.654 525.107 315.294V126.576C525.107 123.714 523.973 120.96 521.948 118.936L521.935 118.922Z" fill="#C2D6FF"/>
<path d="M386.021 176.667L335.929 126.589L524.635 126.562V315.28L473.503 264.149L298.661 264.027L386.021 176.667Z" fill="#D8E4FF"/>
<path d="M423.628 177.819H441.484V181.435H423.628V177.819ZM425.708 183.355L429.068 182.587C430.028 186.843 430.956 192.347 431.276 195.611L427.596 196.635C427.34 193.307 426.54 187.675 425.708 183.355ZM435.564 182.459L439.596 183.067C438.732 188.475 437.388 194.747 436.172 198.747L432.876 198.075C433.996 193.947 435.116 187.355 435.564 182.459ZM422.188 197.531H442.188V201.147H422.188V197.531ZM429.356 172.891L433.036 171.963C433.644 173.531 434.316 175.515 434.636 176.891L430.828 177.947C430.604 176.603 429.932 174.459 429.356 172.891ZM411.98 188.699C414.732 188.155 418.7 187.163 422.476 186.203L422.924 189.723C419.564 190.651 415.884 191.611 412.972 192.379L411.98 188.699ZM412.396 178.523H422.732V182.107H412.396V178.523ZM415.98 172.443H419.724V198.427C419.724 200.219 419.404 201.115 418.38 201.691C417.388 202.299 415.98 202.427 413.9 202.395C413.772 201.435 413.324 199.899 412.876 198.939C413.932 198.971 415.084 198.971 415.436 198.939C415.852 198.939 415.98 198.811 415.98 198.395V172.443ZM445.26 176.379H471.34V179.771H445.26V176.379ZM446.732 181.371H470.06V184.603H446.732V181.371ZM444.876 191.291H472.332V194.715H444.876V191.291ZM443.884 186.299H473.004V189.659H443.884V186.299ZM456.268 178.491H460.204V188.987H456.268V178.491ZM449.196 173.563L452.62 172.219C453.644 173.339 454.636 174.875 455.052 175.963L451.468 177.531C451.116 176.411 450.156 174.747 449.196 173.563ZM463.468 172.219L467.596 173.243C466.508 174.971 465.324 176.603 464.396 177.723L460.94 176.699C461.804 175.451 462.86 173.595 463.468 172.219ZM455.82 188.987H459.852C459.148 196.155 457.26 200.475 445.164 202.427C444.876 201.435 443.948 199.835 443.212 198.971C454.124 197.563 455.244 194.491 455.82 188.987ZM460.684 192.507C462.604 196.475 466.732 198.427 473.58 198.939C472.748 199.771 471.724 201.403 471.244 202.491C463.724 201.531 459.66 198.747 457.132 193.147L460.684 192.507Z" fill="#2366F9"/>
<path d="M524.635 126.562V315.281L473.503 264.15L298.661 264.028L386.021 176.668L335.929 126.576L524.621 126.549M524.635 115.764L335.943 115.791C331.569 115.791 327.641 118.423 325.968 122.459C324.294 126.495 325.225 131.138 328.303 134.229L370.755 176.681L291.034 256.402C287.943 259.493 287.025 264.136 288.686 268.172C290.359 272.208 294.287 274.84 298.661 274.84L469.035 274.962L517.008 322.934C519.073 325 521.84 326.093 524.648 326.093C526.038 326.093 527.442 325.823 528.779 325.27C532.814 323.596 535.447 319.654 535.447 315.294V126.576C535.447 123.714 534.313 120.96 532.288 118.936C530.263 116.911 527.523 115.777 524.648 115.777L524.635 115.764Z" fill="white"/>
<path d="M524.635 126.562V315.281L473.503 264.15L298.661 264.028L386.021 176.668L335.929 126.576L524.621 126.549M524.635 115.764L335.943 115.791C331.569 115.791 327.641 118.423 325.968 122.459C324.294 126.495 325.225 131.138 328.303 134.229L370.755 176.681L291.034 256.402C287.943 259.493 287.025 264.136 288.686 268.172C290.359 272.208 294.287 274.84 298.661 274.84L469.035 274.962L517.008 322.934C519.073 325 521.84 326.093 524.648 326.093C526.038 326.093 527.442 325.823 528.779 325.27C532.815 323.596 535.447 319.654 535.447 315.294V126.576C535.447 123.714 534.313 120.96 532.288 118.936C530.263 116.911 527.523 115.777 524.648 115.777L524.635 115.764Z" stroke="#0669F7" stroke-width="0.5" stroke-miterlimit="10"/>
<defs>
<linearGradient id="paint0_linear_343_666" x1="662.476" y1="7.27273" x2="662.476" y2="116.364" gradientUnits="userSpaceOnUse">
<stop stop-color="#BCD6FF"/>
<stop offset="1" stop-color="#BCD6FF" stop-opacity="0"/>
</linearGradient>
</defs>
</svg>
